<svg width="24" height="24" fill="none" xmlns="http://www.w3.org/2000/svg"><g clip-path="url(#a)" fill="#013A4C"><path d="M14 17.02h-4v7h4v-7ZM14-.02h-4v7h4v-7ZM6.98 10h-7v4h7v-4ZM24.02 10h-7v4h7v-4ZM7.031 14.139l-4.95 4.95 2.829 2.828 4.95-4.95L7.03 14.14ZM19.091 2.083l-4.95 4.95 2.829 2.828 4.95-4.95-2.829-2.828ZM4.912 2.08 2.084 4.91l4.95 4.949 2.828-2.828-4.95-4.95ZM16.968 14.14l-2.829 2.83 4.95 4.95 2.828-2.83-4.95-4.95Z"/></g><defs><clipPath id="a"><path fill="#fff" d="M0 0h24v24H0z"/></clipPath></defs></svg>