<svg width="109" height="109" fill="none" xmlns="http://www.w3.org/2000/svg"><path d="M54.5 109c30.1 0 54.5-24.4 54.5-54.5S84.6 0 54.5 0 0 24.4 0 54.5 24.4 109 54.5 109Z" fill="#013A4C"/><path d="m49.829 55.279-24.993 25.07" stroke="#fff" stroke-width="3.4"/><path d="M39.396 26.004h-7.63M35.58 22.19v7.63M79.103 71.395H71.55M75.288 67.658v7.552M62.052 27.873v-5.684M82.918 44.924h-5.684M50.374 54.734l-11.445-2.647 10.043-6.073-1.012-11.757 8.876 7.708 10.9-4.516-4.594 10.823 7.708 8.875-11.756-1.012L53.02 66.18l-2.647-11.445v0Z" stroke="#fff" stroke-width="3.4" stroke-linecap="square"/></svg>