<svg width="109" height="109" fill="none" xmlns="http://www.w3.org/2000/svg"><path d="M54.5 109c30.1 0 54.5-24.4 54.5-54.5S84.6 0 54.5 0 0 24.4 0 54.5 24.4 109 54.5 109Z" fill="#013A4C"/><path d="M26.082 30.831h56.836M35.58 78.169a7.553 7.553 0 1 0 0-15.106 7.553 7.553 0 0 0 0 15.106v0Z" stroke="#fff" stroke-width="3.4" stroke-linecap="square"/><path d="M35.58 63.064v-32.31" stroke="#fff" stroke-width="3.4"/><path d="M50.763 78.169a7.552 7.552 0 1 0-.156-15.104 7.552 7.552 0 0 0 .156 15.104v0Z" stroke="#fff" stroke-width="3.4" stroke-linecap="square"/><path d="M50.763 63.064v-32.31" stroke="#fff" stroke-width="3.4"/><path d="M81.75 60.962a7.552 7.552 0 1 1-10.433-2.569 7.552 7.552 0 0 1 10.433 2.491v.078Z" stroke="#fff" stroke-width="3.4" stroke-linecap="square"/><path d="M72.563 57.848 61.896 30.831" stroke="#fff" stroke-width="3.4"/></svg>