<svg width="131" height="54" viewBox="0 0 131 54" fill="none" xmlns="http://www.w3.org/2000/svg">
<path d="M21.9466 27.2366H37.8979V37.772H1.03369V22.655L11.8706 11.8154V37.315L21.9466 27.2366Z" fill="#FF4C00" stroke="#FF4C00" stroke-width="0.5" stroke-miterlimit="10"/>
<path d="M11.8706 11.684H1.0918L11.7395 1.03369H11.8706V11.684Z" fill="#FF4C00" stroke="#FF4C00" stroke-width="0.5" stroke-miterlimit="10"/>
<path d="M37.8981 1.03369V11.4163L37.6305 11.684H12.1384L22.7861 1.03369H37.8981Z" fill="#FF4C00" stroke="#FF4C00" stroke-width="0.5" stroke-miterlimit="10"/>
<path d="M51.946 34.4844C51.0009 34.4844 50.1208 34.328 49.3056 34.0151C48.5022 33.6902 47.7993 33.239 47.1968 32.6614C46.6061 32.0718 46.1453 31.3799 45.8145 30.5857C45.4838 29.7915 45.3184 28.9251 45.3184 27.9866C45.3184 27.048 45.4838 26.1816 45.8145 25.3874C46.1453 24.5932 46.612 23.9073 47.2145 23.3297C47.817 22.7401 48.52 22.2889 49.3233 21.976C50.1267 21.6511 51.0068 21.4887 51.9638 21.4887C52.9798 21.4887 53.9072 21.6692 54.746 22.0302C55.5848 22.3791 56.2936 22.9026 56.8725 23.6005L55.3839 25.0264C54.935 24.5331 54.4329 24.166 53.8776 23.9254C53.3224 23.6727 52.7199 23.5463 52.0701 23.5463C51.4203 23.5463 50.8237 23.6546 50.2803 23.8712C49.7486 24.0878 49.282 24.3947 48.8803 24.7918C48.4904 25.1889 48.1833 25.6582 47.9588 26.1996C47.7461 26.7411 47.6398 27.3368 47.6398 27.9866C47.6398 28.6363 47.7461 29.232 47.9588 29.7735C48.1833 30.315 48.4904 30.7842 48.8803 31.1813C49.282 31.5784 49.7486 31.8853 50.2803 32.1019C50.8237 32.3185 51.4203 32.4268 52.0701 32.4268C52.7199 32.4268 53.3224 32.3064 53.8776 32.0658C54.4329 31.8131 54.935 31.434 55.3839 30.9286L56.8725 32.3726C56.2936 33.0585 55.5848 33.5819 54.746 33.9429C53.9072 34.3039 52.9739 34.4844 51.946 34.4844Z" fill="white"/>
<path d="M60.4708 34.3039V26.0372L60.9848 26.5787H57.1393V24.6654H65.9998V26.5787H62.1721L62.686 26.0372V34.3039H60.4708Z" fill="white"/>
<path d="M72.8521 34.4303C72.0842 34.4303 71.3812 34.2498 70.7433 33.8888C70.1171 33.5278 69.615 32.9863 69.237 32.2643C68.8707 31.5303 68.6876 30.6038 68.6876 29.4847C68.6876 28.3536 68.8648 27.427 69.2192 26.705C69.5855 25.983 70.0817 25.4476 70.7078 25.0986C71.334 24.7376 72.0487 24.5571 72.8521 24.5571C73.7854 24.5571 74.6065 24.7617 75.3153 25.1708C76.036 25.5799 76.603 26.1515 77.0165 26.8855C77.4418 27.6195 77.6545 28.4859 77.6545 29.4847C77.6545 30.4834 77.4418 31.3558 77.0165 32.1019C76.603 32.8359 76.036 33.4075 75.3153 33.8166C74.6065 34.2257 73.7854 34.4303 72.8521 34.4303ZM67.6066 37.8056V24.6654H69.7154V26.9397L69.6446 29.5027L69.8218 32.0658V37.8056H67.6066ZM72.604 32.499C73.1356 32.499 73.6082 32.3786 74.0217 32.138C74.447 31.8973 74.7837 31.5483 75.0318 31.0911C75.2799 30.6338 75.4039 30.0984 75.4039 29.4847C75.4039 28.859 75.2799 28.3235 75.0318 27.8783C74.7837 27.421 74.447 27.072 74.0217 26.8314C73.6082 26.5907 73.1356 26.4704 72.604 26.4704C72.0723 26.4704 71.5939 26.5907 71.1686 26.8314C70.7433 27.072 70.4066 27.421 70.1585 27.8783C69.9104 28.3235 69.7863 28.859 69.7863 29.4847C69.7863 30.0984 69.9104 30.6338 70.1585 31.0911C70.4066 31.5483 70.7433 31.8973 71.1686 32.138C71.5939 32.3786 72.0723 32.499 72.604 32.499Z" fill="white"/>
<path d="M84.0767 34.4303C83.108 34.4303 82.2455 34.2197 81.4894 33.7985C80.7333 33.3653 80.1367 32.7757 79.6996 32.0297C79.2625 31.2836 79.0439 30.4353 79.0439 29.4847C79.0439 28.522 79.2625 27.6737 79.6996 26.9397C80.1367 26.1936 80.7333 25.61 81.4894 25.1889C82.2455 24.7677 83.108 24.5571 84.0767 24.5571C85.0573 24.5571 85.9256 24.7677 86.6817 25.1889C87.4496 25.61 88.0462 26.1876 88.4715 26.9216C88.9086 27.6556 89.1272 28.51 89.1272 29.4847C89.1272 30.4353 88.9086 31.2836 88.4715 32.0297C88.0462 32.7757 87.4496 33.3653 86.6817 33.7985C85.9256 34.2197 85.0573 34.4303 84.0767 34.4303ZM84.0767 32.499C84.6202 32.499 85.1045 32.3786 85.5298 32.138C85.9551 31.8973 86.2859 31.5483 86.5222 31.0911C86.7703 30.6338 86.8944 30.0984 86.8944 29.4847C86.8944 28.859 86.7703 28.3235 86.5222 27.8783C86.2859 27.421 85.9551 27.072 85.5298 26.8314C85.1045 26.5907 84.6261 26.4704 84.0944 26.4704C83.551 26.4704 83.0666 26.5907 82.6413 26.8314C82.2278 27.072 81.897 27.421 81.6489 27.8783C81.4008 28.3235 81.2768 28.859 81.2768 29.4847C81.2768 30.0984 81.4008 30.6338 81.6489 31.0911C81.897 31.5483 82.2278 31.8973 82.6413 32.138C83.0666 32.3786 83.5451 32.499 84.0767 32.499Z" fill="white"/>
<path d="M91.3155 34.3039V24.6654H93.5306V31.0189L98.7583 24.6654H100.779V34.3039H98.5634V27.9505L93.3534 34.3039H91.3155ZM95.9052 23.5283C94.9601 23.5283 94.2336 23.3057 93.7256 22.8605C93.2175 22.4032 92.9576 21.7414 92.9458 20.875H94.4167C94.4285 21.3082 94.5584 21.6511 94.8065 21.9038C95.0664 22.1565 95.4268 22.2829 95.8875 22.2829C96.3365 22.2829 96.6909 22.1565 96.9508 21.9038C97.2225 21.6511 97.3643 21.3082 97.3761 20.875H98.8824C98.8706 21.7414 98.6048 22.4032 98.0849 22.8605C97.5769 23.3057 96.8504 23.5283 95.9052 23.5283Z" fill="white"/>
<path d="M105.296 34.3039V23.0771L105.846 23.6546H101.203V21.6692H111.693V23.6546H107.051L107.582 23.0771V34.3039H105.296Z" fill="white"/>
<path d="M118.672 34.3039V32.3546L118.548 31.9394V28.528C118.548 27.8662 118.353 27.3548 117.963 26.9938C117.573 26.6208 116.983 26.4343 116.191 26.4343C115.659 26.4343 115.134 26.5185 114.614 26.687C114.106 26.8554 113.675 27.0901 113.32 27.3909L112.452 25.7484C112.96 25.3513 113.562 25.0565 114.259 24.864C114.968 24.6594 115.701 24.5571 116.457 24.5571C117.827 24.5571 118.885 24.8941 119.629 25.5679C120.385 26.2297 120.763 27.2586 120.763 28.6544V34.3039H118.672ZM115.695 34.4303C114.986 34.4303 114.366 34.3099 113.834 34.0693C113.302 33.8166 112.889 33.4736 112.594 33.0405C112.31 32.5952 112.168 32.0959 112.168 31.5423C112.168 31.0008 112.292 30.5135 112.54 30.0803C112.8 29.6471 113.22 29.3042 113.799 29.0515C114.378 28.7988 115.145 28.6724 116.102 28.6724H118.849V30.1706H116.262C115.506 30.1706 114.998 30.2969 114.738 30.5496C114.478 30.7903 114.348 31.0911 114.348 31.4521C114.348 31.8612 114.508 32.1861 114.827 32.4268C115.145 32.6674 115.589 32.7878 116.156 32.7878C116.699 32.7878 117.183 32.6614 117.609 32.4087C118.046 32.156 118.359 31.783 118.548 31.2896L118.92 32.6434C118.707 33.2089 118.323 33.6481 117.768 33.961C117.225 34.2738 116.534 34.4303 115.695 34.4303Z" fill="white"/>
<path d="M125.471 34.3039V26.0372L125.985 26.5787H122.14V24.6654H131V26.5787H127.172L127.686 26.0372V34.3039H125.471Z" fill="white"/>
<path d="M3.80767 52.0782C3.26893 52.0782 2.78544 51.9629 2.35721 51.7325C1.93589 51.4952 1.60436 51.1733 1.36261 50.7666C1.12087 50.3531 1 49.882 1 49.3533C1 48.8179 1.12087 48.3468 1.36261 47.9401C1.60436 47.5334 1.93589 47.2148 2.35721 46.9844C2.78544 46.7539 3.26893 46.6387 3.80767 46.6387C4.27043 46.6387 4.6883 46.7268 5.06128 46.903C5.43425 47.0793 5.7278 47.3436 5.94191 47.6961L5.39281 48.0621C5.20632 47.791 4.97494 47.591 4.69866 47.4622C4.42239 47.3334 4.12193 47.269 3.79731 47.269C3.41052 47.269 3.06172 47.3572 2.75091 47.5334C2.4401 47.7028 2.1949 47.9435 2.01532 48.2553C1.83574 48.5671 1.74595 48.9331 1.74595 49.3533C1.74595 49.7736 1.83574 50.1396 2.01532 50.4514C2.1949 50.7632 2.4401 51.0072 2.75091 51.1834C3.06172 51.3529 3.41052 51.4376 3.79731 51.4376C4.12193 51.4376 4.42239 51.3732 4.69866 51.2445C4.97494 51.1157 5.20632 50.9191 5.39281 50.6547L5.94191 51.0208C5.7278 51.3665 5.43425 51.6308 5.06128 51.8138C4.6883 51.9901 4.27043 52.0782 3.80767 52.0782Z" fill="white"/>
<path d="M8.30109 52.0273V47.1267L8.48757 47.3199H6.23937V46.6895H11.0984V47.3199H8.85019L9.03668 47.1267V52.0273H8.30109Z" fill="white"/>
<path d="M14.9696 52.0782C14.5 52.0782 14.0752 51.9731 13.6953 51.763C13.3154 51.5461 13.0115 51.2377 12.7836 50.8378C12.5626 50.4311 12.452 49.9363 12.452 49.3533C12.452 48.7704 12.5626 48.279 12.7836 47.8791C13.0046 47.4724 13.3051 47.164 13.6849 46.9539C14.0648 46.7437 14.493 46.6387 14.9696 46.6387C15.4876 46.6387 15.9504 46.7539 16.3579 46.9844C16.7723 47.208 17.097 47.5266 17.3318 47.9401C17.5666 48.3468 17.684 48.8179 17.684 49.3533C17.684 49.8956 17.5666 50.3701 17.3318 50.7768C17.097 51.1834 16.7723 51.502 16.3579 51.7325C15.9504 51.9629 15.4876 52.0782 14.9696 52.0782ZM12.162 53.9998V46.6895H12.8665V48.2959L12.7939 49.3635L12.8975 50.4412V53.9998H12.162ZM14.9178 51.4376C15.3046 51.4376 15.65 51.3529 15.9539 51.1834C16.2578 51.0072 16.4995 50.7632 16.6791 50.4514C16.8587 50.1328 16.9485 49.7668 16.9485 49.3533C16.9485 48.9399 16.8587 48.5772 16.6791 48.2654C16.4995 47.9536 16.2578 47.7096 15.9539 47.5334C15.65 47.3572 15.3046 47.269 14.9178 47.269C14.531 47.269 14.1822 47.3572 13.8714 47.5334C13.5675 47.7096 13.3258 47.9536 13.1462 48.2654C12.9735 48.5772 12.8872 48.9399 12.8872 49.3533C12.8872 49.7668 12.9735 50.1328 13.1462 50.4514C13.3258 50.7632 13.5675 51.0072 13.8714 51.1834C14.1822 51.3529 14.531 51.4376 14.9178 51.4376Z" fill="white"/>
<path d="M21.5023 52.0782C20.9774 52.0782 20.5043 51.9629 20.083 51.7325C19.6686 51.4952 19.3405 51.1733 19.0987 50.7666C18.857 50.3531 18.7361 49.882 18.7361 49.3533C18.7361 48.8179 18.857 48.3468 19.0987 47.9401C19.3405 47.5334 19.6686 47.2148 20.083 46.9844C20.4974 46.7539 20.9705 46.6387 21.5023 46.6387C22.0411 46.6387 22.5177 46.7539 22.9321 46.9844C23.3534 47.2148 23.6815 47.5334 23.9163 47.9401C24.1581 48.3468 24.2789 48.8179 24.2789 49.3533C24.2789 49.882 24.1581 50.3531 23.9163 50.7666C23.6815 51.1733 23.3534 51.4952 22.9321 51.7325C22.5108 51.9629 22.0342 52.0782 21.5023 52.0782ZM21.5023 51.4376C21.896 51.4376 22.2448 51.3529 22.5487 51.1834C22.8526 51.0072 23.0909 50.7632 23.2636 50.4514C23.4432 50.1328 23.533 49.7668 23.533 49.3533C23.533 48.9331 23.4432 48.5671 23.2636 48.2553C23.0909 47.9435 22.8526 47.7028 22.5487 47.5334C22.2448 47.3572 21.8995 47.269 21.5127 47.269C21.1259 47.269 20.7806 47.3572 20.4767 47.5334C20.1728 47.7028 19.931 47.9435 19.7514 48.2553C19.5719 48.5671 19.4821 48.9331 19.4821 49.3533C19.4821 49.7668 19.5719 50.1328 19.7514 50.4514C19.931 50.7632 20.1728 51.0072 20.4767 51.1834C20.7806 51.3529 21.1225 51.4376 21.5023 51.4376Z" fill="white"/>
<path d="M25.851 52.0273V46.6895H26.5866V50.9293L30.2231 46.6895H30.8758V52.0273H30.1402V47.7774L26.5141 52.0273H25.851Z" fill="white"/>
<path d="M34.02 52.0273V47.1267L34.2065 47.3199H31.9583V46.6895H36.8173V47.3199H34.5691L34.7556 47.1267V52.0273H34.02Z" fill="white"/>
<path d="M39.959 52.0782C39.3926 52.0782 38.8953 51.9629 38.4671 51.7325C38.0389 51.4952 37.7039 51.1733 37.4621 50.7666C37.2204 50.3531 37.0995 49.882 37.0995 49.3533C37.0995 48.8246 37.2135 48.3569 37.4414 47.9503C37.6762 47.5436 37.994 47.225 38.3946 46.9945C38.8021 46.7573 39.2579 46.6387 39.7621 46.6387C40.2733 46.6387 40.7257 46.7539 41.1194 46.9844C41.52 47.208 41.8342 47.5266 42.0621 47.9401C42.2901 48.3468 42.404 48.8179 42.404 49.3533C42.404 49.3872 42.4006 49.4245 42.3937 49.4652C42.3937 49.4991 42.3937 49.5363 42.3937 49.577H37.659V49.0382H42L41.7099 49.2517C41.7099 48.8653 41.6236 48.523 41.4509 48.2248C41.2851 47.9197 41.0572 47.6825 40.7671 47.5131C40.477 47.3436 40.142 47.2589 39.7621 47.2589C39.3892 47.2589 39.0542 47.3436 38.7572 47.5131C38.4602 47.6825 38.2288 47.9197 38.063 48.2248C37.8973 48.5298 37.8144 48.8789 37.8144 49.272V49.3838C37.8144 49.7905 37.9042 50.1498 38.0838 50.4616C38.2702 50.7666 38.5258 51.0072 38.8504 51.1834C39.182 51.3529 39.5584 51.4376 39.9797 51.4376C40.3112 51.4376 40.6186 51.38 40.9018 51.2648C41.1919 51.1496 41.4405 50.9733 41.6477 50.7361L42.0621 51.2038C41.8204 51.4885 41.5165 51.7054 41.1504 51.8545C40.7913 52.0036 40.3941 52.0782 39.959 52.0782Z" fill="white"/>
<path d="M42.9264 52.0172L42.9782 51.397C43.0266 51.4037 43.0715 51.4139 43.1129 51.4275C43.1613 51.4342 43.2027 51.4376 43.2372 51.4376C43.4583 51.4376 43.6344 51.3563 43.7656 51.1936C43.9038 51.0309 44.0074 50.814 44.0764 50.5429C44.1455 50.2718 44.1939 49.9668 44.2215 49.6279C44.2491 49.2822 44.2733 48.9365 44.294 48.5908L44.3873 46.6895H48.376V52.0273H47.6404V47.1064L47.8269 47.3199H44.8638L45.04 47.0962L44.9571 48.6416C44.9364 49.1025 44.8984 49.5431 44.8431 49.9634C44.7948 50.3836 44.7153 50.753 44.6048 51.0716C44.5012 51.3902 44.3562 51.641 44.1697 51.824C43.9832 52.0002 43.7449 52.0883 43.4548 52.0883C43.3719 52.0883 43.2856 52.0816 43.1958 52.068C43.1129 52.0544 43.0231 52.0375 42.9264 52.0172Z" fill="white"/>
<path d="M52.8086 48.5705C53.4923 48.5772 54.0104 48.7264 54.3626 49.0178C54.7218 49.3093 54.9014 49.7295 54.9014 50.2786C54.9014 50.8479 54.708 51.2851 54.3212 51.5901C53.9413 51.8952 53.3887 52.0443 52.6635 52.0375L50.4671 52.0273V46.6895H51.2027V48.5501L52.8086 48.5705ZM52.6221 51.4885C53.1263 51.4952 53.5062 51.397 53.7617 51.1936C54.0242 50.9835 54.1554 50.6785 54.1554 50.2786C54.1554 49.8786 54.0276 49.5872 53.7721 49.4042C53.5165 49.2144 53.1332 49.1161 52.6221 49.1093L51.2027 49.089V51.4681L52.6221 51.4885Z" fill="white"/>
<path d="M56.3049 52.0273V46.6895H57.0405V49.0483H60.4698V46.6895H61.2054V52.0273H60.4698V49.6685H57.0405V52.0273H56.3049Z" fill="white"/>
<path d="M66.6737 52.0273V50.8479L66.6426 50.6547V48.6823C66.6426 48.2282 66.5114 47.8791 66.2489 47.6351C65.9934 47.3911 65.61 47.269 65.0989 47.269C64.7467 47.269 64.4117 47.3267 64.0939 47.4419C63.7762 47.5571 63.5069 47.7096 63.2858 47.8994L62.9543 47.3605C63.2306 47.1301 63.5621 46.9539 63.9489 46.8319C64.3357 46.7031 64.7432 46.6387 65.1714 46.6387C65.8759 46.6387 66.4181 46.8115 66.798 47.1572C67.1848 47.4961 67.3782 48.0146 67.3782 48.7128V52.0273H66.6737ZM64.7985 52.0782C64.3909 52.0782 64.0352 52.0138 63.7313 51.885C63.4343 51.7494 63.2064 51.5664 63.0475 51.336C62.8887 51.0987 62.8093 50.8276 62.8093 50.5226C62.8093 50.2447 62.8749 49.9939 63.0061 49.7702C63.1442 49.5397 63.3653 49.3567 63.6692 49.2212C63.98 49.0788 64.3944 49.0076 64.9124 49.0076H66.7877V49.5465H64.9331C64.4082 49.5465 64.0421 49.638 63.8349 49.821C63.6346 50.004 63.5345 50.2311 63.5345 50.5022C63.5345 50.8073 63.6554 51.0513 63.8971 51.2343C64.1388 51.4173 64.4773 51.5088 64.9124 51.5088C65.3268 51.5088 65.6825 51.4173 65.9795 51.2343C66.2834 51.0445 66.5045 50.7734 66.6426 50.4209L66.8084 50.9191C66.6702 51.2716 66.4285 51.5529 66.0831 51.763C65.7447 51.9731 65.3165 52.0782 64.7985 52.0782Z" fill="white"/>
<path d="M72.8486 52.0273V50.1057L72.9832 50.2582H71.1391C70.4415 50.2582 69.8959 50.1091 69.5022 49.8109C69.1085 49.5126 68.9116 49.0788 68.9116 48.5095C68.9116 47.8994 69.1223 47.4453 69.5436 47.147C69.9649 46.842 70.5278 46.6895 71.2323 46.6895H73.522V52.0273H72.8486ZM68.8702 52.0273L70.3621 49.9735H71.1287L69.6679 52.0273H68.8702ZM72.8486 49.8922V47.1064L72.9832 47.3199H71.2531C70.7489 47.3199 70.3552 47.4148 70.072 47.6046C69.7957 47.7944 69.6576 48.1028 69.6576 48.5298C69.6576 49.3228 70.1721 49.7194 71.2013 49.7194H72.9832L72.8486 49.8922Z" fill="white"/>
<path d="M82.3197 52.0273L80.0818 49.3838L80.6931 49.028L83.1899 52.0273H82.3197ZM78.3309 52.0273V46.6895H79.0665V52.0273H78.3309ZM78.8386 49.6482V49.028H80.5895V49.6482H78.8386ZM80.7552 49.4347L80.0715 49.333L82.2368 46.6895H83.0345L80.7552 49.4347Z" fill="white"/>
<path d="M86.3965 52.0782C85.8716 52.0782 85.3984 51.9629 84.9771 51.7325C84.5627 51.4952 84.2346 51.1733 83.9929 50.7666C83.7511 50.3531 83.6303 49.882 83.6303 49.3533C83.6303 48.8179 83.7511 48.3468 83.9929 47.9401C84.2346 47.5334 84.5627 47.2148 84.9771 46.9844C85.3915 46.7539 85.8647 46.6387 86.3965 46.6387C86.9352 46.6387 87.4118 46.7539 87.8262 46.9844C88.2475 47.2148 88.5756 47.5334 88.8105 47.9401C89.0522 48.3468 89.1731 48.8179 89.1731 49.3533C89.1731 49.882 89.0522 50.3531 88.8105 50.7666C88.5756 51.1733 88.2475 51.4952 87.8262 51.7325C87.4049 51.9629 86.9283 52.0782 86.3965 52.0782ZM86.3965 51.4376C86.7902 51.4376 87.139 51.3529 87.4429 51.1834C87.7468 51.0072 87.9851 50.7632 88.1578 50.4514C88.3373 50.1328 88.4271 49.7668 88.4271 49.3533C88.4271 48.9331 88.3373 48.5671 88.1578 48.2553C87.9851 47.9435 87.7468 47.7028 87.4429 47.5334C87.139 47.3572 86.7936 47.269 86.4068 47.269C86.0201 47.269 85.6747 47.3572 85.3708 47.5334C85.0669 47.7028 84.8252 47.9435 84.6456 48.2553C84.466 48.5671 84.3762 48.9331 84.3762 49.3533C84.3762 49.7668 84.466 50.1328 84.6456 50.4514C84.8252 50.7632 85.0669 51.0072 85.3708 51.1834C85.6747 51.3529 86.0166 51.4376 86.3965 51.4376Z" fill="white"/>
<path d="M90.7452 52.0273V46.6895H91.4911L93.9569 50.7869H93.6461L96.1533 46.6895H96.8371V52.0273H96.1637V47.5131L96.2984 47.5741L93.9569 51.3766H93.6254L91.2632 47.5334L91.4186 47.5029V52.0273H90.7452Z" fill="white"/>
<path d="M98.9303 52.0273V46.6895H103.82V52.0273H103.085V47.1267L103.271 47.3199H99.4794L99.6659 47.1267V52.0273H98.9303Z" fill="white"/>
<path d="M109.289 52.0273V50.8479L109.258 50.6547V48.6823C109.258 48.2282 109.127 47.8791 108.864 47.6351C108.609 47.3911 108.225 47.269 107.714 47.269C107.362 47.269 107.027 47.3267 106.709 47.4419C106.391 47.5571 106.122 47.7096 105.901 47.8994L105.57 47.3605C105.846 47.1301 106.177 46.9539 106.564 46.8319C106.951 46.7031 107.358 46.6387 107.787 46.6387C108.491 46.6387 109.033 46.8115 109.413 47.1572C109.8 47.4961 109.993 48.0146 109.993 48.7128V52.0273H109.289ZM107.414 52.0782C107.006 52.0782 106.65 52.0138 106.347 51.885C106.05 51.7494 105.822 51.5664 105.663 51.336C105.504 51.0987 105.424 50.8276 105.424 50.5226C105.424 50.2447 105.49 49.9939 105.621 49.7702C105.759 49.5397 105.981 49.3567 106.284 49.2212C106.595 49.0788 107.01 49.0076 107.528 49.0076H109.403V49.5465H107.548C107.023 49.5465 106.657 49.638 106.45 49.821C106.25 50.004 106.15 50.2311 106.15 50.5022C106.15 50.8073 106.271 51.0513 106.512 51.2343C106.754 51.4173 107.093 51.5088 107.528 51.5088C107.942 51.5088 108.298 51.4173 108.595 51.2343C108.899 51.0445 109.12 50.7734 109.258 50.4209L109.424 50.9191C109.285 51.2716 109.044 51.5529 108.698 51.763C108.36 51.9731 107.932 52.0782 107.414 52.0782Z" fill="white"/>
<path d="M111.952 52.0273V46.6895H112.687V49.0483H116.117V46.6895H116.852V52.0273H116.117V49.6685H112.687V52.0273H111.952Z" fill="white"/>
<path d="M118.943 52.0273V46.6895H119.678V50.9293L123.315 46.6895H123.968V52.0273H123.232V47.7774L119.606 52.0273H118.943Z" fill="white"/>
<path d="M129.588 52.0273V50.1057L129.723 50.2582H127.878C127.181 50.2582 126.635 50.1091 126.242 49.8109C125.848 49.5126 125.651 49.0788 125.651 48.5095C125.651 47.8994 125.862 47.4453 126.283 47.147C126.704 46.842 127.267 46.6895 127.972 46.6895H130.261V52.0273H129.588ZM125.61 52.0273L127.101 49.9735H127.868L126.407 52.0273H125.61ZM129.588 49.8922V47.1064L129.723 47.3199H127.992C127.488 47.3199 127.095 47.4148 126.811 47.6046C126.535 47.7944 126.397 48.1028 126.397 48.5298C126.397 49.3228 126.911 49.7194 127.941 49.7194H129.723L129.588 49.8922Z" fill="white"/>
</svg>
