<svg width="276" height="32" fill="none" xmlns="http://www.w3.org/2000/svg"><path d="M.683 31.356V.53h6.41v25.526H22.43v5.3H.683ZM31.199 24.82v-5.3h17.813v5.3H31.199ZM34.956.53h9.503l8.398 30.826h-6.541l-4.774-18.46-1.857-7.729-1.856 7.729-4.862 18.46h-6.365L34.956.53ZM64.309 31.356V5.83h-9.327V.53h25.062v5.3h-9.326v25.526h-6.41ZM93.056 31.356V5.83H83.73V.53h25.062v5.3h-9.326v25.526h-6.41ZM114.025 31.356V.53h22.63v5.3h-16.177v6.933h10.696v5.3h-10.696v7.993h16.354v5.3h-22.807ZM180.098 31.886c-2.77 0-5.157-.663-7.161-1.988-2.004-1.325-3.55-3.18-4.641-5.564-1.09-2.415-1.635-5.212-1.635-8.391 0-3.239.559-6.05 1.679-8.435 1.12-2.385 2.696-4.225 4.73-5.52C175.133.661 177.549 0 180.318 0c2.181 0 4.185.427 6.012 1.28a11.179 11.179 0 0 1 4.464 3.71c1.179 1.59 1.842 3.519 1.99 5.786h-7.028c-.178-1.649-.737-2.974-1.68-3.975-.943-1-2.196-1.501-3.758-1.501a5.744 5.744 0 0 0-3.623 1.236c-1.062.824-1.901 2.032-2.52 3.622-.59 1.59-.885 3.518-.885 5.785 0 2.267.295 4.195.885 5.785.589 1.59 1.385 2.797 2.387 3.621a5.507 5.507 0 0 0 3.536 1.237c1.09 0 2.048-.22 2.873-.662a5.38 5.38 0 0 0 1.989-1.988c.53-.854.854-1.87.972-3.047h6.984c-.207 2.238-.855 4.18-1.945 5.83-1.091 1.648-2.549 2.929-4.376 3.842-1.827.883-3.992 1.325-6.497 1.325ZM199.916 24.82v-5.3h17.813v5.3h-17.813ZM203.674.53h9.503l8.398 30.826h-6.542l-4.774-18.46-1.855-7.729-1.857 7.729-4.863 18.46h-6.365L203.674.53ZM225.836 31.356V.53h22.94v5.3h-16.531v6.933h11.049v5.3h-11.049v13.293h-6.409ZM253.052 31.356V.53h22.631v5.3h-16.177v6.933h10.697v5.3h-10.697v7.993h16.355v5.3h-22.809Z" fill="#D27487"/></svg>