<svg width="356" height="92" fill="none" xmlns="http://www.w3.org/2000/svg"><path d="M44.21 21.05h19.68c3.748 0 6.56.932 8.642 2.485 2.29 1.863 3.54 4.553 3.54 7.865 0 3.83-1.562 6.21-4.686 7.659v.207c4.166 1.345 6.56 5.07 6.56 9.52 0 4.244-1.666 7.556-4.373 9.626-2.29 1.656-5.206 2.38-9.163 2.38h-20.2V21.05Zm17.701 15.525c2.083 0 3.644-1.139 3.644-3.52 0-2.276-1.561-3.414-3.748-3.414h-6.768v6.83h6.872v.104Zm.937 15.42c2.395 0 4.165-1.449 4.165-4.036 0-2.795-1.874-4.036-4.165-4.036h-7.705v8.175h7.705v-.103Zm16.868-30.944h10.309v39.844H79.716V21.051Zm12.391 25.666c0-9.004 5.831-15.006 14.89-15.006 9.059 0 14.786 6.106 14.786 15.006 0 9.004-5.727 15.006-14.786 15.006s-14.89-6.002-14.89-15.006Zm19.368 0c0-4.968-1.562-8.072-4.686-8.072-3.124 0-4.582 3.104-4.582 8.072 0 4.968 1.458 8.176 4.582 8.176 3.124-.104 4.686-3.208 4.686-8.176Zm11.453 0c0-9.004 5.831-15.006 14.89-15.006 9.059 0 14.682 6.002 14.682 15.006 0 9.004-5.727 15.006-14.786 15.006-8.955 0-14.786-6.002-14.786-15.006Zm19.367 0c0-4.968-1.561-8.072-4.685-8.072-3.124 0-4.582 3.104-4.582 8.072 0 4.968 1.458 8.176 4.582 8.176 3.124-.104 4.685-3.208 4.685-8.176Zm12.287-14.282h9.58v4.243h.208c1.874-3.312 4.477-5.071 8.642-5.071 3.645 0 6.352 1.76 7.705 4.864h.209c2.29-3.726 5.31-4.864 8.85-4.864 6.664 0 9.476 4.864 9.476 11.384v17.8h-9.996v-16.04c0-2.898-.937-4.761-3.436-4.761-2.499 0-3.749 2.277-3.749 5.381v15.42h-9.996v-16.04c0-2.898-.937-4.761-3.436-4.761-2.499 0-3.748 2.277-3.748 5.381v15.42h-10.309V32.436Zm57.269 24.631h-.104v3.726h-9.58V21.05h9.996v14.282h.208c1.875-2.484 4.478-3.83 8.122-3.83 7.185 0 11.35 6.417 11.35 15.007 0 9.625-4.478 15.213-11.975 15.213-3.123 0-6.351-1.448-8.017-4.657Zm9.683-10.66c0-4.553-1.666-7.554-4.685-7.554-3.124 0-4.998 3-4.998 7.555 0 4.553 1.978 7.554 4.998 7.554 3.019 0 4.685-2.897 4.685-7.554Zm11.454.207c0-8.9 5.935-15.006 14.473-15.006 4.27 0 7.497 1.345 9.996 3.726 3.332 3.208 4.79 8.176 4.686 13.971h-19.159c.417 3.519 2.083 5.382 5.102 5.382 1.77 0 3.332-.828 3.957-2.69h9.684c-1.666 6.52-6.769 9.727-13.953 9.727-8.851-.103-14.786-6.106-14.786-15.11Zm9.996-3h9.163c-.208-3.416-2.082-5.175-4.477-5.175-2.812-.104-4.374 1.862-4.686 5.174Zm30.509-6.314h.208c2.082-3.933 4.79-5.485 8.226-5.485.833 0 1.353.104 1.666.31v8.694h-.209c-5.935-1.035-9.371 1.76-9.371 8.176v11.901h-10.1v-28.46h9.58v4.864Zm11.141 23.596h9.684c.416 1.242 1.666 2.38 4.06 2.38 3.228 0 4.374-1.966 4.374-4.967v-2.07h-.209c-1.561 1.863-3.748 3.209-6.872 3.209-6.143 0-11.558-4.554-11.558-13.455 0-8.175 4.374-14.488 11.038-14.488 3.852 0 6.143 1.552 7.705 3.932h.208v-3.105h9.579v24.632c0 4.553-1.561 8.072-3.956 10.142-2.499 2.173-6.039 3.105-10.1 3.105-7.706.103-13.016-3.001-13.953-9.315Zm18.534-15.317c0-3.518-1.666-6.416-4.581-6.416-2.812 0-4.582 2.484-4.582 6.416 0 3.83 1.77 6.52 4.582 6.52 2.811 0 4.581-2.794 4.581-6.52Z" fill="#BFBDB8"/></svg>