<svg width="336" height="88" fill="none" xmlns="http://www.w3.org/2000/svg"><path d="m61.35 59.767-12.515 5.336v-.54a43.555 43.555 0 0 1-7.609 1.086c-11.805-.097-21.115-6.21-21.27-13.396v-2.662c3.858 5.518 11.763 9.26 21.27 9.096a31.274 31.274 0 0 0 9.242-1.085l1.103-2.662a36.307 36.307 0 0 1-10.363 1.625c-11.806 0-21.116-6.064-21.27-13.396v-2.146c3.857 5.118 11.763 8.817 21.27 8.568 4.121.211 8.236-.53 12.014-2.165l.549-2.662a26.139 26.139 0 0 1-12.496 2.662c-11.811.146-21.121-5.912-21.269-13.401v-2.153c3.857 5.209 11.762 8.95 21.27 9.096a34.424 34.424 0 0 0 14.713-3.742l.548-3.201c-3.801 2.759-9.359 4.584-15.262 4.85-11.811-.242-21.121-6.354-21.269-13.946.105-7.253 9.464-13.31 21.27-13.414 7.005.103 13.554 2.517 17.411 6.452l.401.643h2.754l-.4-.643C57.59 12.801 49.84 9.4 41.275 9.4 28.164 9.35 17.751 16.39 17.751 24.868v27.895c.45 8.27 10.61 15.02 23.413 15.02 8.472.03 16.131-3.268 20.185-8.017Z" fill="#BFBDB8"/><path d="m56.241 78.603 4.406-18.423-12.662 5.421 7.708-31.909H40.905l3.851-15.712h47.295L88.17 33.692H72.766l-3.309 8.672 17.068-7.046L56.24 78.602Zm7.708-22.164-2.2 10.836 18.164-27.04-14.861 6.501 6.605-15.16h14.861L89.272 20.2H46.333L43.58 31.564h14.868l-7.16 30.29 12.662-5.416ZM123.4 28.512v.049c.06.748-.052 1.5-.33 2.2a4.96 4.96 0 0 1-1.272 1.838c-1.096.983-2.6 1.474-4.553 1.474a6.412 6.412 0 0 1-2.576-.44 6.318 6.318 0 0 1-2.174-1.428 6.69 6.69 0 0 1-1.397-2.247 6.607 6.607 0 0 1-.409-2.604v-3.177a6.848 6.848 0 0 1 1.75-4.852c.6-.616 1.325-1.1 2.127-1.423a6.282 6.282 0 0 1 2.531-.45 7.182 7.182 0 0 1 4.701 1.43 4.856 4.856 0 0 1 1.312 1.827c.287.702.403 1.459.34 2.212v.049h-3.198a3.16 3.16 0 0 0-.727-2.292 3.277 3.277 0 0 0-2.354-.74 2.666 2.666 0 0 0-1.316.305 2.611 2.611 0 0 0-.988.908c-.596.9-.893 1.959-.851 3.032v3.25a5.266 5.266 0 0 0 .851 3.032 3.351 3.351 0 0 0 4.658.443c.55-.643.821-1.473.751-2.31h3.149v-.05l-.025-.036Zm18.121-1.285a6.847 6.847 0 0 1-1.904 4.93 6.564 6.564 0 0 1-2.259 1.47 6.649 6.649 0 0 1-2.67.446 6.73 6.73 0 0 1-2.668-.452 6.635 6.635 0 0 1-2.261-1.464 6.847 6.847 0 0 1-1.904-4.93v-2.905a6.9 6.9 0 0 1 1.904-4.924 6.573 6.573 0 0 1 2.252-1.499c.849-.34 1.761-.5 2.677-.472a6.51 6.51 0 0 1 2.682.46c.85.34 1.616.855 2.247 1.511a6.659 6.659 0 0 1 1.464 2.27c.326.847.474 1.75.434 2.654l.055 2.905h-.049Zm-3.309-2.953a4.8 4.8 0 0 0-.948-3.105 3.22 3.22 0 0 0-1.178-.919 3.27 3.27 0 0 0-1.472-.294 3.063 3.063 0 0 0-1.46.28 3.008 3.008 0 0 0-1.146.933 5.024 5.024 0 0 0-.949 3.105v2.904a4.967 4.967 0 0 0 .949 3.153c.304.393.7.707 1.153.919.454.21.952.312 1.453.294a3.122 3.122 0 0 0 1.48-.277 3.075 3.075 0 0 0 1.17-.936 4.84 4.84 0 0 0 .948-3.153v-2.904Zm11.812 9.556h-3.303V17.677h3.303V33.83Zm18.971 0h-3.303l-6.611-10.884h-.049V33.83h-3.303V17.677h3.303l6.605 10.915h.055V17.676h3.303V33.83Zm16.562-13.644h-4.701v13.645h-3.303V20.186h-4.609v-2.51h12.613v2.51Zm13.61 6.55h-6.099v4.633h7.252v2.462h-10.506V17.675h10.506v2.51h-7.203v4.04h6.106v2.51h-.056Zm9.163 4.633h7.356v2.462h-10.659V17.675h3.303v13.693Zm21.367-4.633h-6.106v4.633h7.259v2.462h-10.512V17.675h10.512v2.51h-7.197v4.04h6.106v2.51h-.062Zm18.485 4.924a6.218 6.218 0 0 1-2.299 1.728 8.904 8.904 0 0 1-3.906.74 6.528 6.528 0 0 1-2.633-.405 6.455 6.455 0 0 1-2.242-1.42 6.337 6.337 0 0 1-1.465-2.191 6.243 6.243 0 0 1-.437-2.588v-3.396a6.325 6.325 0 0 1 .42-2.578 6.415 6.415 0 0 1 1.428-2.2 6.315 6.315 0 0 1 2.153-1.425 6.398 6.398 0 0 1 2.554-.45c1.997 0 3.549.492 4.603 1.432a4.605 4.605 0 0 1 1.215 1.694c.269.649.385 1.349.338 2.047v.049h-3.081a2.73 2.73 0 0 0-.752-2.02 3.023 3.023 0 0 0-1.024-.587 3.058 3.058 0 0 0-1.175-.152c-.472-.01-.94.088-1.367.285a3.074 3.074 0 0 0-1.098.849 4.712 4.712 0 0 0-.9 2.953v3.402a4.505 4.505 0 0 0 .949 3.002c.304.373.694.671 1.137.868.444.197.928.288 1.414.265a6.079 6.079 0 0 0 1.849-.242 2.635 2.635 0 0 0 1.047-.606V27.56h-3.149v-2.25h6.451v6.35h-.03Zm8.509-4.282v6.453h-3.303V17.675h5.706a6.987 6.987 0 0 1 4.405 1.28c.523.421.94.957 1.217 1.564.277.607.407 1.27.379 1.934a3.6 3.6 0 0 1-.666 2.141 5.096 5.096 0 0 1-1.959 1.504c.853.208 1.6.714 2.101 1.425.444.746.67 1.598.653 2.462v1.213c-.003.483.063.965.197 1.43.087.42.32.796.66 1.062v.249h-3.401a1.92 1.92 0 0 1-.617-1.213 8.967 8.967 0 0 1-.147-1.577v-1.097a2.291 2.291 0 0 0-.644-1.877 2.386 2.386 0 0 0-1.883-.7h-2.705v-.098h.007Zm0-2.462h2.353a3.08 3.08 0 0 0 2.052-.606 2.123 2.123 0 0 0 .696-1.722 2.398 2.398 0 0 0-.696-1.777 2.697 2.697 0 0 0-2.002-.637h-2.403v4.742Zm22.372 5.458h-5.305l-1.103 3.499h-3.45l5.545-16.155h3.352l5.508 16.155h-3.457l-1.09-3.499Zm-4.504-2.559h3.697l-1.806-5.712h-.049l-1.842 5.712Zm16.365.145v5.864h-3.303V17.676h6.272a6.613 6.613 0 0 1 4.455 1.425 4.72 4.72 0 0 1 1.232 1.692c.277.648.403 1.348.37 2.05a4.809 4.809 0 0 1-.387 2.045 4.893 4.893 0 0 1-1.215 1.702 6.613 6.613 0 0 1-4.455 1.425h-3l.031-.055Zm0-2.462h2.969c.383.023.767-.031 1.128-.158a2.85 2.85 0 0 0 .973-.581c.464-.514.715-1.18.703-1.868a2.762 2.762 0 0 0-.69-1.934 2.716 2.716 0 0 0-2.114-.722h-3l.031 5.264Zm27.11 8.326h-3.303v-6.67h-6.716v6.67h-3.302V17.676h3.302v6.919h6.71v-6.92h3.303l.006 16.15ZM116.697 60.227h-2.052V49.591h-3.697v-1.722h9.458v1.722h-3.697l-.012 10.636Zm13.765 0h-2.052v-5.76a2.403 2.403 0 0 0-.456-1.626 1.716 1.716 0 0 0-1.399-.54 2.252 2.252 0 0 0-1.013.151c-.32.128-.607.327-.835.583a4.065 4.065 0 0 0-.616 2.517v4.627h-2.003V47.032h2.003v3.347c0 .54-.05 1.086-.099 1.722h.148c.269-.45.67-.81 1.152-1.03a3.748 3.748 0 0 1 1.701-.395c2.304 0 3.456 1.128 3.456 3.445l.013 6.106Zm6.931.146a4.598 4.598 0 0 1-1.866-.278 4.534 4.534 0 0 1-1.59-1.002 4.728 4.728 0 0 1-1.233-3.499 5.359 5.359 0 0 1 1.152-3.596 3.986 3.986 0 0 1 1.447-1.026 4.037 4.037 0 0 1 1.757-.302 3.954 3.954 0 0 1 1.598.256c.508.194.969.491 1.354.872.389.419.689.91.879 1.447.191.535.269 1.104.23 1.67v1.086h-6.359c.001.757.279 1.489.783 2.061.262.256.575.454.92.581.346.128.714.182 1.082.16a7.29 7.29 0 0 0 1.553-.152c.535-.12 1.054-.301 1.546-.54v1.655a5.76 5.76 0 0 1-1.497.492 8.056 8.056 0 0 1-1.756.115Zm-.351-8.18a2.107 2.107 0 0 0-1.553.606 2.89 2.89 0 0 0-.702 1.77h4.313a2.593 2.593 0 0 0-.555-1.77 1.884 1.884 0 0 0-.671-.462 1.912 1.912 0 0 0-.807-.139l-.025-.006Zm15.662.15H150.4v7.884h-2.052v-7.883h-1.546v-.934l1.546-.606v-.607a3.354 3.354 0 0 1 .801-2.462 3.313 3.313 0 0 1 2.403-.788 6.333 6.333 0 0 1 2.101.346l-.524 1.558a5.038 5.038 0 0 0-1.454-.249 1.251 1.251 0 0 0-.998.395 2.13 2.13 0 0 0-.302 1.212v.607h2.305l.049 1.528h-.025Zm8.355 7.884-.296-1.213h-.104a3.011 3.011 0 0 1-1.202 1.037 4.006 4.006 0 0 1-1.75.394 3.736 3.736 0 0 1-2.6-.836c-.616-.546-.85-1.431-.85-2.566V50.87h2.052v5.761a2.52 2.52 0 0 0 .449 1.625 1.745 1.745 0 0 0 1.399.546c.346.027.693-.025 1.014-.154.321-.128.607-.329.835-.586.476-.749.692-1.63.616-2.51V50.87h2.051v9.357h-1.614Zm8.01-1.473a5.444 5.444 0 0 0 1.503-.25v1.48a3.024 3.024 0 0 1-.85.243 7.71 7.71 0 0 1-1.103.103c-1.906 0-2.857-.986-2.852-2.959V52.35h-1.264v-.885l1.399-.74.702-1.971h1.233v2.068h2.698v1.528h-2.698v5.021a1.417 1.417 0 0 0 .351 1.085 1.161 1.161 0 0 0 .906.298h-.025Zm10.062 1.473-.302-1.213h-.099a3.067 3.067 0 0 1-1.201 1.037 4.06 4.06 0 0 1-1.756.394 3.734 3.734 0 0 1-2.6-.836 3.543 3.543 0 0 1-.851-2.566V50.87h2.052v5.761c-.042.576.117 1.15.45 1.625a1.762 1.762 0 0 0 1.398.546c.346.028.693-.024 1.014-.153.321-.129.607-.33.835-.587.476-.749.692-1.63.616-2.51V50.87h2.052v9.357h-1.608Zm9.328-9.557c.337.001.674.033 1.004.097l-.203 1.868a5.668 5.668 0 0 0-.9-.097 2.51 2.51 0 0 0-1.953.788 2.822 2.822 0 0 0-.751 2.02v4.85h-1.997V50.87h1.596l.253 1.626h.098a4.064 4.064 0 0 1 1.233-1.329 2.913 2.913 0 0 1 1.62-.497Zm6.556 9.703a4.6 4.6 0 0 1-1.864-.279 4.545 4.545 0 0 1-1.587-1 4.712 4.712 0 0 1-1.232-3.499 5.354 5.354 0 0 1 1.152-3.597 3.974 3.974 0 0 1 1.449-1.029 4.027 4.027 0 0 1 1.761-.299 3.974 3.974 0 0 1 1.601.256c.509.194.971.491 1.357.872.381.423.672.916.855 1.452.183.535.255 1.102.211 1.665v1.086h-6.353c-.008.755.258 1.489.752 2.067a2.611 2.611 0 0 0 2.003.74 7.175 7.175 0 0 0 1.546-.151 6.987 6.987 0 0 0 1.553-.54v1.65a5.753 5.753 0 0 1-1.504.49 8.345 8.345 0 0 1-1.7.116Zm-.321-8.175a2.095 2.095 0 0 0-1.546.607 2.883 2.883 0 0 0-.702 1.77h4.313a2.59 2.59 0 0 0-.549-1.77 2.07 2.07 0 0 0-1.516-.606Zm19.292 3.323a5.152 5.152 0 0 1-1.202 3.596c-.429.428-.945.76-1.514.977a4.376 4.376 0 0 1-1.788.279 4.626 4.626 0 0 1-2.354-.607 3.73 3.73 0 0 1-1.552-1.722 5.851 5.851 0 0 1-.549-2.559 4.926 4.926 0 0 1 1.232-3.547c.432-.43.951-.765 1.524-.983a4.42 4.42 0 0 1 1.797-.285 4.227 4.227 0 0 1 1.777.31c.562.229 1.066.576 1.477 1.018a4.942 4.942 0 0 1 1.152 3.523Zm-6.907 0c0 2.165.801 3.25 2.465 3.25 1.663 0 2.402-1.103 2.402-3.25 0-2.146-.801-3.201-2.402-3.201-.355-.024-.71.04-1.033.186-.323.147-.603.37-.816.65a3.927 3.927 0 0 0-.616 2.365Zm14.011-3.153h-2.304v7.883h-2.052v-7.883h-1.547v-.958l1.547-.606v-.607a3.354 3.354 0 0 1 .801-2.462 3.313 3.313 0 0 1 2.403-.788 6.333 6.333 0 0 1 2.101.346l-.548 1.558a5.05 5.05 0 0 0-1.455-.249 1.253 1.253 0 0 0-.998.395 2.027 2.027 0 0 0-.302 1.212v.607h2.305v1.528l.049.024Zm14.214 7.883h-2.051v-5.76a2.918 2.918 0 0 0-.401-1.626 1.518 1.518 0 0 0-.582-.427 1.547 1.547 0 0 0-.718-.112 1.953 1.953 0 0 0-.95.15c-.298.128-.559.329-.757.583a4.545 4.545 0 0 0-.548 2.517v4.675h-2.002v-9.38h1.602l.301 1.212h.099c.269-.45.671-.81 1.152-1.03a3.63 3.63 0 0 1 1.652-.346c1.447 0 2.464.49 2.902 1.473h.147a3.157 3.157 0 0 1 1.202-1.08 3.968 3.968 0 0 1 1.756-.393 3.4 3.4 0 0 1 1.338.165c.43.144.826.372 1.163.671.575.729.86 1.639.801 2.56v6.124h-2.002v-5.76a2.918 2.918 0 0 0-.401-1.626 1.583 1.583 0 0 0-.585-.42 1.614 1.614 0 0 0-.715-.12 1.95 1.95 0 0 0-.963.144 1.918 1.918 0 0 0-.768.59 3.885 3.885 0 0 0-.548 2.22v4.972l-.124.024Zm17.216-4.73a5.156 5.156 0 0 1-1.233 3.596 4.312 4.312 0 0 1-1.5.97 4.378 4.378 0 0 1-1.772.286c-.825.01-1.638-.2-2.353-.607-.69-.397-1.234-1-1.553-1.722a5.85 5.85 0 0 1-.548-2.559 4.922 4.922 0 0 1 1.201-3.547c.436-.434.96-.77 1.538-.99a4.42 4.42 0 0 1 1.814-.278 4.227 4.227 0 0 1 1.784.31c.564.23 1.07.58 1.482 1.024a5.174 5.174 0 0 1 1.14 3.517Zm-6.907 0c0 2.165.801 3.25 2.464 3.25 1.664 0 2.403-1.085 2.403-3.25 0-2.164-.801-3.201-2.403-3.201a2.15 2.15 0 0 0-1.032.186c-.323.147-.604.37-.816.65a3.927 3.927 0 0 0-.616 2.365Zm17.615 4.724h-2.052v-5.76a2.4 2.4 0 0 0-.449-1.626 1.742 1.742 0 0 0-1.405-.54 2.17 2.17 0 0 0-1.017.143 2.14 2.14 0 0 0-.832.591 4.433 4.433 0 0 0-.616 2.517v4.675h-1.996V50.87h1.596l.302 1.213h.098a3.066 3.066 0 0 1 1.202-1.03 3.958 3.958 0 0 1 1.756-.346c2.298 0 3.401 1.134 3.401 3.444l.012 6.094Zm6.956.152a4.575 4.575 0 0 1-1.864-.277 4.522 4.522 0 0 1-1.586-1.003 4.677 4.677 0 0 1-1.232-3.499 5.348 5.348 0 0 1 1.152-3.596c.396-.45.89-.806 1.446-1.04a4.05 4.05 0 0 1 1.764-.312 3.947 3.947 0 0 1 1.598.255c.508.194.969.492 1.353.873.383.422.676.915.86 1.45a4.12 4.12 0 0 1 .212 1.667v1.086h-6.358a3.166 3.166 0 0 0 .751 2.067 2.65 2.65 0 0 0 2.003.74 7.201 7.201 0 0 0 1.553-.151 8.237 8.237 0 0 0 1.552-.54v1.65a5.8 5.8 0 0 1-1.503.49 8.35 8.35 0 0 1-1.701.116v.024Zm-.4-8.18a2.104 2.104 0 0 0-1.553.606 2.924 2.924 0 0 0-.702 1.77h4.313a2.59 2.59 0 0 0-.549-1.77 1.916 1.916 0 0 0-1.509-.625v.019Zm4.602-1.328h2.206l1.947 5.318c.287.682.494 1.394.616 2.122h.05c.069-.385.17-.765.302-1.134.147-.443.85-2.565 2.199-6.306h2.2l-4.048 10.587c-.752 1.923-1.953 2.911-3.697 2.911-.44 0-.879-.05-1.306-.151v-1.577c.347.063.7.098 1.053.103.949 0 1.652-.546 2.052-1.68l.351-.885-3.925-9.309Z" fill="#BFBDB8"/></svg>