<svg width="356" height="92" fill="none" xmlns="http://www.w3.org/2000/svg"><g clip-path="url(#a)" fill="#BFBCB8"><path d="M108.984 57.729c-5.735 0-9.29-5.11-9.29-12.18 0-7.001 2.992-12.217 9.255-12.217 4.117 0 6.826 2.626 7.32 6.09h9.571c-.493-4.305-2.429-8.085-5.806-10.605-2.745-2.1-6.546-3.395-11.05-3.395-11.542 0-19.037 8.68-19.037 20.126 0 11.516 7.742 19.951 19.108 19.951 5.454 0 9.43-1.505 12.386-4.375 2.639-2.52 4.399-6.02 4.645-9.836h-9.572c-.421 3.746-3.237 6.44-7.53 6.44ZM143.751 36.379c-8.868 0-14.814 6.3-14.814 14.596 0 8.295 5.946 14.596 14.814 14.596 8.937 0 14.779-6.3 14.779-14.596s-5.842-14.596-14.779-14.596Zm-.035 22.926c-3.836 0-5.842-3.325-5.842-8.33 0-5.006 2.006-8.4 5.842-8.4 3.835 0 5.911 3.394 5.911 8.4-.035 5.005-2.076 8.33-5.911 8.33ZM171.051 33.448a4.778 4.778 0 0 0 0-6.782 4.84 4.84 0 0 0-6.818 0 4.778 4.778 0 0 0 0 6.782 4.84 4.84 0 0 0 6.818 0ZM159.973 43.309h3.694v21.386h8.798V37.113h-12.492v6.196ZM194.106 36.309c-3.835 0-6.51 1.61-8.55 4.585h-.176v-3.78h-8.481V64.66h8.833V49.434c0-3.395 1.935-5.81 4.856-5.81 2.885 0 4.328 1.995 4.328 4.9V64.66h8.832V46.74c0-6.126-3.589-10.431-9.642-10.431ZM224.437 26.191h-16.502V64.66h15.905c4.856 0 8.761-1.225 11.788-3.5 4.328-3.29 6.721-8.716 6.721-15.506 0-11.761-7.214-19.462-17.912-19.462Zm-1.301 30.487h-5.63V34.172h5.735c6.018 0 9.431 4.515 9.431 11.516-.035 7.035-3.273 10.99-9.536 10.99ZM268.493 39.95c-2.392-2.135-5.524-3.43-9.465-3.43-8.446 0-14.216 6.3-14.216 14.525 0 8.331 5.63 14.631 14.779 14.631 3.519 0 6.334-.91 8.657-2.52 2.427-1.68 4.046-4.025 4.644-6.51h-8.586c-.774 1.715-2.287 2.73-4.609 2.73-3.625 0-5.666-2.31-6.229-6.02h19.917c.035-5.636-1.584-10.396-4.892-13.406Zm-14.99 8.155c.599-3.29 2.322-5.39 5.666-5.39 2.85 0 4.926 2.1 5.243 5.39h-10.909ZM290.768 47.44c-3.519-.63-6.651-.91-6.651-2.835 0-1.715 1.689-2.52 3.835-2.52 2.429 0 4.118.77 4.434 3.22h8.129c-.422-5.425-4.645-8.82-12.492-8.82-6.545 0-11.964 3.01-11.964 8.82 0 6.475 5.138 7.735 9.958 8.54 3.695.63 7.038.91 7.038 3.396 0 1.785-1.689 2.73-4.328 2.73-2.921 0-4.751-1.33-5.103-4.095h-8.339c.281 6.09 5.348 9.8 13.477 9.8 7.249 0 12.597-3.115 12.597-9.135.036-7.036-5.7-8.296-10.591-9.1ZM322.121 47.473l9.748-10.36h-10.17l-8.234 9.31V26.19h-8.692v38.503h8.692v-8.47l2.674-2.8 6.651 11.27h10.205l-10.874-17.221ZM51.17 48.105a2.667 2.667 0 0 0 2.674-2.66c0-1.469-1.197-2.66-2.675-2.66a2.667 2.667 0 0 0-2.674 2.66c0 1.47 1.198 2.66 2.674 2.66ZM72.495 48.105a2.667 2.667 0 0 0 2.674-2.66c0-1.469-1.197-2.66-2.674-2.66a2.667 2.667 0 0 0-2.675 2.66c0 1.47 1.198 2.66 2.675 2.66ZM72.495 69.352a2.667 2.667 0 0 0 2.674-2.66c0-1.47-1.197-2.66-2.674-2.66a2.667 2.667 0 0 0-2.675 2.66c0 1.469 1.198 2.66 2.675 2.66Z"/><path d="M80.341 23.707c-.281-3.885-3.413-7.035-7.319-7.315a8.027 8.027 0 0 0-6.334 2.38c-1.196 1.225-2.815 1.96-4.54 1.96h-.633c-1.76 0-3.413-.735-4.645-1.995-1.442-1.47-3.448-2.345-5.665-2.345s-4.223.91-5.665 2.345c-1.232 1.26-2.886 1.995-4.645 1.995h-.598c-1.725 0-3.378-.665-4.575-1.89-.246-.245-.493-.49-.739-.7-2.99-2.415-7.39-2.345-10.275.21-3.484 3.045-3.624 8.366-.387 11.586l.105.105c1.267 1.19 1.936 2.87 1.936 4.585v.595c0 1.75-.74 3.395-2.006 4.62-1.478 1.435-2.358 3.43-2.358 5.636 0 2.205.915 4.2 2.358 5.635 1.267 1.225 2.006 2.87 2.006 4.62v.805c0 1.716-.74 3.326-1.97 4.516-1.549 1.505-2.499 3.64-2.393 5.985.175 4.13 3.554 7.456 7.67 7.596 2.393.07 4.54-.876 6.053-2.45 1.197-1.226 2.815-1.996 4.54-1.996h.668c1.724 0 3.343.735 4.54 1.996 1.583 1.645 3.87 2.59 6.369 2.415 3.905-.28 7.072-3.43 7.354-7.35a7.94 7.94 0 0 0-7.953-8.506 7.976 7.976 0 0 0-5.63 2.31c-1.232 1.225-2.885 1.96-4.61 1.96h-.739c-1.724 0-3.413-.665-4.645-1.925l-.07-.07c-1.267-1.225-2.006-2.87-2.006-4.62v-.7c0-1.75.74-3.396 2.006-4.62 1.478-1.436 2.358-3.431 2.358-5.636s-.915-4.2-2.358-5.636c-1.267-1.225-2.006-2.87-2.006-4.62v-.63c0-1.75.74-3.395 1.97-4.62l.071-.07.07-.07c1.232-1.225 2.886-1.96 4.646-1.96h.633c1.76 0 3.413.735 4.645 1.995 1.443 1.47 3.448 2.345 5.665 2.345s4.223-.91 5.666-2.345c1.231-1.26 2.885-1.995 4.644-1.995h.564c1.759 0 3.413.735 4.644 1.995 1.443 1.47 3.449 2.345 5.666 2.345 4.574.035 8.234-3.815 7.917-8.47Z"/></g><defs><clipPath id="a"><path fill="#fff" transform="translate(21.99 16.371)" d="M0 0h311.005v58.475H0z"/></clipPath></defs></svg>