<svg width="152" height="33" fill="none" xmlns="http://www.w3.org/2000/svg"><path d="M42.904 16.311h7.308v2.296h-7.308V16.31Zm.23 7.888h-2.722V9.591h10.7v2.275h-7.978V24.2ZM60.036 24.2v-2.254l-.147-.48V17.52c0-.765-.23-1.356-.69-1.773-.461-.432-1.16-.647-2.095-.647-.628 0-1.25.097-1.864.292-.6.195-1.11.466-1.528.814l-1.026-1.9c.6-.458 1.312-.8 2.136-1.022a9.51 9.51 0 0 1 2.596-.355c1.62 0 2.87.39 3.749 1.17.893.764 1.34 1.954 1.34 3.568v6.531h-2.471Zm-3.518.146c-.838 0-1.57-.14-2.199-.418-.628-.292-1.117-.689-1.466-1.19a3.106 3.106 0 0 1-.502-1.732c0-.625.146-1.189.44-1.69.307-.5.802-.897 1.486-1.19.684-.292 1.592-.438 2.722-.438h3.246v1.733h-3.057c-.894 0-1.494.146-1.8.438a1.35 1.35 0 0 0-.462 1.043c0 .473.189.849.566 1.127.377.278.9.418 1.57.418.643 0 1.215-.147 1.718-.439a2.475 2.475 0 0 0 1.11-1.294l.44 1.566c-.252.653-.706 1.161-1.362 1.523-.642.362-1.459.543-2.45.543ZM65.866 24.2V13.055h2.492v3.067l-.293-.897a3.54 3.54 0 0 1 1.57-1.711c.727-.39 1.627-.585 2.702-.585v2.484a1.304 1.304 0 0 0-.314-.042 2.066 2.066 0 0 0-.293-.02c-.992 0-1.78.291-2.367.876-.586.57-.88 1.426-.88 2.566V24.2h-2.617ZM88.671 12.93c.894 0 1.683.174 2.367.522.698.348 1.242.884 1.633 1.607.39.71.586 1.628.586 2.755v6.385H90.64v-6.051c0-.988-.217-1.726-.65-2.213-.432-.486-1.053-.73-1.863-.73-.572 0-1.082.125-1.529.376-.433.25-.775.619-1.026 1.106-.237.487-.356 1.106-.356 1.857V24.2H82.6v-6.051c0-.988-.217-1.726-.65-2.213-.432-.486-1.054-.73-1.863-.73-.573 0-1.082.125-1.529.376-.433.25-.775.619-1.026 1.106-.237.487-.356 1.106-.356 1.857V24.2h-2.618V13.056h2.492v2.963l-.44-.876a3.808 3.808 0 0 1 1.634-1.65c.726-.375 1.55-.563 2.47-.563 1.048 0 1.955.258 2.723.773.782.514 1.298 1.293 1.55 2.337l-1.026-.355c.363-.835.963-1.502 1.8-2.003.838-.501 1.808-.752 2.911-.752ZM103.701 24.408c-1.145 0-2.199-.18-3.162-.543a7.793 7.793 0 0 1-2.492-1.565 7.178 7.178 0 0 1-1.654-2.4c-.391-.918-.587-1.92-.587-3.005s.196-2.086.587-3.005a6.958 6.958 0 0 1 1.654-2.379 7.522 7.522 0 0 1 2.534-1.565c.963-.375 2.017-.563 3.162-.563 1.242 0 2.359.202 3.35.605a6.569 6.569 0 0 1 2.534 1.774l-1.717 1.67c-.572-.571-1.193-.989-1.864-1.253-.656-.278-1.382-.417-2.177-.417a5.94 5.94 0 0 0-2.136.375 4.937 4.937 0 0 0-1.696 1.065 4.888 4.888 0 0 0-1.11 1.627 5.497 5.497 0 0 0-.377 2.066c0 .738.125 1.42.377 2.046a5.123 5.123 0 0 0 1.11 1.648c.474.46 1.033.814 1.675 1.065.642.25 1.354.375 2.136.375.726 0 1.424-.111 2.094-.334.684-.236 1.333-.626 1.947-1.168l1.55 2.024a8.182 8.182 0 0 1-2.681 1.398c-1.005.306-2.024.46-3.057.46Zm3.162-2.212v-5.468h2.576v5.823l-2.576-.355ZM112.778 24.2V13.055h2.492v3.067l-.293-.897a3.54 3.54 0 0 1 1.57-1.711c.726-.39 1.627-.585 2.702-.585v2.484a1.31 1.31 0 0 0-.314-.042 2.076 2.076 0 0 0-.294-.02c-.991 0-1.78.291-2.366.876-.586.57-.879 1.426-.879 2.566V24.2h-2.618ZM126.393 24.346c-1.145 0-2.164-.244-3.058-.73a5.632 5.632 0 0 1-2.115-2.046c-.516-.863-.774-1.843-.774-2.942 0-1.113.258-2.094.774-2.943a5.477 5.477 0 0 1 2.115-2.024c.894-.487 1.913-.73 3.058-.73 1.158 0 2.185.243 3.078.73a5.336 5.336 0 0 1 2.115 2.003c.517.849.775 1.837.775 2.964 0 1.099-.258 2.08-.775 2.942a5.436 5.436 0 0 1-2.115 2.045c-.893.487-1.92.73-3.078.73Zm0-2.233c.642 0 1.214-.14 1.717-.418a2.9 2.9 0 0 0 1.173-1.21c.293-.529.439-1.148.439-1.857 0-.724-.146-1.343-.439-1.858a2.9 2.9 0 0 0-1.173-1.21 3.443 3.443 0 0 0-1.696-.418c-.643 0-1.215.14-1.717.418-.489.278-.88.682-1.173 1.21-.293.515-.44 1.134-.44 1.858 0 .71.147 1.328.44 1.857.293.529.684.932 1.173 1.21a3.438 3.438 0 0 0 1.696.418ZM137.028 24.2l-4.104-11.144h2.471l3.518 9.829h-1.173l3.686-9.83h2.198l3.581 9.83h-1.152l3.623-9.83h2.325L147.875 24.2h-2.513l-3.266-8.702h.775l-3.33 8.702h-2.513Z" fill="#062010"/><ellipse cx="16.557" cy="16.5" rx="16.557" ry="16.5" fill="url(#a)"/><mask id="b" maskUnits="userSpaceOnUse" x="2.42" y="8.289" width="28" height="21" fill="#000"><path fill="#fff" d="M2.42 8.289h28v21h-28z"/><path d="M23.389 11.874a7.41 7.41 0 0 0-2.243.364 7.138 7.138 0 0 0-2.018 1.028c-.614.447-1.156.982-1.688 1.523a27.174 27.174 0 0 1-1.64 1.565c1.167.704 2.485 1.11 3.84 1.256a9.685 9.685 0 0 0 4.033-.413 9.6 9.6 0 0 0 3.502-2.025c1.004-.913 1.83-1.939 2.343-3.192a9.33 9.33 0 0 0-3.223-1.96 9.273 9.273 0 0 0-3.738-.505 8.867 8.867 0 0 0-1.864.34 8.4 8.4 0 0 0-2.547 1.236c-.256.186-.506.38-.746.588-.481.413-.934.86-1.383 1.315-.448.454-.894.914-1.363 1.354-.234.22-.473.436-.723.64a9.249 9.249 0 0 1-.775.582c-.067.046-.134.092-.204.133-.07.043-.137.087-.207.127l-.213.12c-.07.04-.144.073-.216.11l-.11.055c-.036.018-.074.034-.11.05-.075.032-.149.067-.224.097-.152.058-.303.12-.46.165-.153.053-.313.09-.47.132l-.239.048-.12.024-.12.018c-.323.049-.649.07-.974.068A6.504 6.504 0 0 1 5.83 15.54a6.731 6.731 0 0 1-2.383-3.007l-.027-.068.06-.043c.893-.644 1.966-1.016 3.057-1.112a6.75 6.75 0 0 1 3.211.513 7.4 7.4 0 0 1 1.422.808c.441.321.845.69 1.214 1.09a10.306 10.306 0 0 1 1.762 2.724 12.783 12.783 0 0 1 .774 2.307c.059.265.114.53.155.798.081.534.145 1.07.192 1.608.027.268.045.538.066.806.017.27.038.539.052.808.06 1.077.095 2.155.106 3.233a64.57 64.57 0 0 1-.041 3.234c.014-.539.02-1.078.02-1.617a88.91 88.91 0 0 0-.02-1.616 70.454 70.454 0 0 0-.137-3.23c-.016-.269-.04-.537-.06-.806-.024-.268-.044-.537-.073-.804a25.265 25.265 0 0 0-.208-1.6 12.435 12.435 0 0 0-.94-3.07 10.157 10.157 0 0 0-1.755-2.678 8.104 8.104 0 0 0-1.198-1.064 7.224 7.224 0 0 0-1.394-.783 6.576 6.576 0 0 0-3.132-.48c-1.06.1-2.068.387-2.928 1.012.466 1.169 1.287 2.153 2.32 2.875a6.3 6.3 0 0 0 3.547 1.132c.313.003.628-.02.939-.067l.116-.017.116-.024.231-.047c.152-.042.306-.076.454-.128.151-.045.297-.104.444-.16.073-.03.144-.064.216-.095.036-.016.072-.031.108-.049l.105-.053c.07-.036.142-.07.21-.109l.206-.116c.068-.04.134-.083.201-.124.068-.04.133-.085.198-.13.263-.175.514-.368.758-.57.244-.201.48-.414.711-.633.464-.435.905-.896 1.356-1.35.45-.455.909-.906 1.4-1.325.243-.21.499-.409.761-.598.263-.189.54-.36.822-.517a9.136 9.136 0 0 1 1.79-.745 9.08 9.08 0 0 1 1.908-.343 9.48 9.48 0 0 1 3.82.523 9.519 9.519 0 0 1 3.286 2.007l.049.046-.025.06c-.134.318-.283.63-.449.934a9.92 9.92 0 0 1-.551.877c-.203.28-.418.552-.648.81-.232.255-.475.502-.732.733a9.762 9.762 0 0 1-3.573 2.04 9.835 9.835 0 0 1-4.093.394 9.44 9.44 0 0 1-3.877-1.346l-.056-.035.05-.042c.578-.49 1.106-1.037 1.644-1.575.538-.536 1.088-1.07 1.71-1.513a7.113 7.113 0 0 1 2.041-1.014 7.465 7.465 0 0 1 2.251-.336Z"/></mask><path d="M23.389 11.874a7.41 7.41 0 0 0-2.243.364 7.138 7.138 0 0 0-2.018 1.028c-.614.447-1.156.982-1.688 1.523a27.174 27.174 0 0 1-1.64 1.565c1.167.704 2.485 1.11 3.84 1.256a9.685 9.685 0 0 0 4.033-.413 9.6 9.6 0 0 0 3.502-2.025c1.004-.913 1.83-1.939 2.343-3.192a9.33 9.33 0 0 0-3.223-1.96 9.273 9.273 0 0 0-3.738-.505 8.867 8.867 0 0 0-1.864.34 8.4 8.4 0 0 0-2.547 1.236c-.256.186-.506.38-.746.588-.481.413-.934.86-1.383 1.315-.448.454-.894.914-1.363 1.354-.234.22-.473.436-.723.64a9.249 9.249 0 0 1-.775.582c-.067.046-.134.092-.204.133-.07.043-.137.087-.207.127l-.213.12c-.07.04-.144.073-.216.11l-.11.055c-.036.018-.074.034-.11.05-.075.032-.149.067-.224.097-.152.058-.303.12-.46.165-.153.053-.313.09-.47.132l-.239.048-.12.024-.12.018c-.323.049-.649.07-.974.068A6.504 6.504 0 0 1 5.83 15.54a6.731 6.731 0 0 1-2.383-3.007l-.027-.068.06-.043c.893-.644 1.966-1.016 3.057-1.112a6.75 6.75 0 0 1 3.211.513 7.4 7.4 0 0 1 1.422.808c.441.321.845.69 1.214 1.09a10.306 10.306 0 0 1 1.762 2.724 12.783 12.783 0 0 1 .774 2.307c.059.265.114.53.155.798.081.534.145 1.07.192 1.608.027.268.045.538.066.806.017.27.038.539.052.808.06 1.077.095 2.155.106 3.233a64.57 64.57 0 0 1-.041 3.234c.014-.539.02-1.078.02-1.617a88.91 88.91 0 0 0-.02-1.616 70.454 70.454 0 0 0-.137-3.23c-.016-.269-.04-.537-.06-.806-.024-.268-.044-.537-.073-.804a25.265 25.265 0 0 0-.208-1.6 12.435 12.435 0 0 0-.94-3.07 10.157 10.157 0 0 0-1.755-2.678 8.104 8.104 0 0 0-1.198-1.064 7.224 7.224 0 0 0-1.394-.783 6.576 6.576 0 0 0-3.132-.48c-1.06.1-2.068.387-2.928 1.012.466 1.169 1.287 2.153 2.32 2.875a6.3 6.3 0 0 0 3.547 1.132c.313.003.628-.02.939-.067l.116-.017.116-.024.231-.047c.152-.042.306-.076.454-.128.151-.045.297-.104.444-.16.073-.03.144-.064.216-.095.036-.016.072-.031.108-.049l.105-.053c.07-.036.142-.07.21-.109l.206-.116c.068-.04.134-.083.201-.124.068-.04.133-.085.198-.13.263-.175.514-.368.758-.57.244-.201.48-.414.711-.633.464-.435.905-.896 1.356-1.35.45-.455.909-.906 1.4-1.325.243-.21.499-.409.761-.598.263-.189.54-.36.822-.517a9.136 9.136 0 0 1 1.79-.745 9.08 9.08 0 0 1 1.908-.343 9.48 9.48 0 0 1 3.82.523 9.519 9.519 0 0 1 3.286 2.007l.049.046-.025.06c-.134.318-.283.63-.449.934a9.92 9.92 0 0 1-.551.877c-.203.28-.418.552-.648.81-.232.255-.475.502-.732.733a9.762 9.762 0 0 1-3.573 2.04 9.835 9.835 0 0 1-4.093.394 9.44 9.44 0 0 1-3.877-1.346l-.056-.035.05-.042c.578-.49 1.106-1.037 1.644-1.575.538-.536 1.088-1.07 1.71-1.513a7.113 7.113 0 0 1 2.041-1.014 7.465 7.465 0 0 1 2.251-.336Z" fill="#fff"/><path d="M23.389 11.874a7.41 7.41 0 0 0-2.243.364 7.138 7.138 0 0 0-2.018 1.028c-.614.447-1.156.982-1.688 1.523a27.174 27.174 0 0 1-1.64 1.565c1.167.704 2.485 1.11 3.84 1.256a9.685 9.685 0 0 0 4.033-.413 9.6 9.6 0 0 0 3.502-2.025c1.004-.913 1.83-1.939 2.343-3.192a9.33 9.33 0 0 0-3.223-1.96 9.273 9.273 0 0 0-3.738-.505 8.867 8.867 0 0 0-1.864.34 8.4 8.4 0 0 0-2.547 1.236c-.256.186-.506.38-.746.588-.481.413-.934.86-1.383 1.315-.448.454-.894.914-1.363 1.354-.234.22-.473.436-.723.64a9.249 9.249 0 0 1-.775.582c-.067.046-.134.092-.204.133-.07.043-.137.087-.207.127l-.213.12c-.07.04-.144.073-.216.11l-.11.055c-.036.018-.074.034-.11.05-.075.032-.149.067-.224.097-.152.058-.303.12-.46.165-.153.053-.313.09-.47.132l-.239.048-.12.024-.12.018c-.323.049-.649.07-.974.068A6.504 6.504 0 0 1 5.83 15.54a6.731 6.731 0 0 1-2.383-3.007l-.027-.068.06-.043c.893-.644 1.966-1.016 3.057-1.112a6.75 6.75 0 0 1 3.211.513 7.4 7.4 0 0 1 1.422.808c.441.321.845.69 1.214 1.09a10.306 10.306 0 0 1 1.762 2.724 12.783 12.783 0 0 1 .774 2.307c.059.265.114.53.155.798.081.534.145 1.07.192 1.608.027.268.045.538.066.806.017.27.038.539.052.808.06 1.077.095 2.155.106 3.233a64.57 64.57 0 0 1-.041 3.234c.014-.539.02-1.078.02-1.617a88.91 88.91 0 0 0-.02-1.616 70.454 70.454 0 0 0-.137-3.23c-.016-.269-.04-.537-.06-.806-.024-.268-.044-.537-.073-.804a25.265 25.265 0 0 0-.208-1.6 12.435 12.435 0 0 0-.94-3.07 10.157 10.157 0 0 0-1.755-2.678 8.104 8.104 0 0 0-1.198-1.064 7.224 7.224 0 0 0-1.394-.783 6.576 6.576 0 0 0-3.132-.48c-1.06.1-2.068.387-2.928 1.012.466 1.169 1.287 2.153 2.32 2.875a6.3 6.3 0 0 0 3.547 1.132c.313.003.628-.02.939-.067l.116-.017.116-.024.231-.047c.152-.042.306-.076.454-.128.151-.045.297-.104.444-.16.073-.03.144-.064.216-.095.036-.016.072-.031.108-.049l.105-.053c.07-.036.142-.07.21-.109l.206-.116c.068-.04.134-.083.201-.124.068-.04.133-.085.198-.13.263-.175.514-.368.758-.57.244-.201.48-.414.711-.633.464-.435.905-.896 1.356-1.35.45-.455.909-.906 1.4-1.325.243-.21.499-.409.761-.598.263-.189.54-.36.822-.517a9.136 9.136 0 0 1 1.79-.745 9.08 9.08 0 0 1 1.908-.343 9.48 9.48 0 0 1 3.82.523 9.519 9.519 0 0 1 3.286 2.007l.049.046-.025.06c-.134.318-.283.63-.449.934a9.92 9.92 0 0 1-.551.877c-.203.28-.418.552-.648.81-.232.255-.475.502-.732.733a9.762 9.762 0 0 1-3.573 2.04 9.835 9.835 0 0 1-4.093.394 9.44 9.44 0 0 1-3.877-1.346l-.056-.035.05-.042c.578-.49 1.106-1.037 1.644-1.575.538-.536 1.088-1.07 1.71-1.513a7.113 7.113 0 0 1 2.041-1.014 7.465 7.465 0 0 1 2.251-.336Z" stroke="#fff" stroke-width=".631" mask="url(#b)"/><defs><linearGradient id="a" x1="0" y1="6.188" x2="34.231" y2="8.616" gradientUnits="userSpaceOnUse"><stop stop-color="#30C917"/><stop offset="1" stop-color="#279A13"/></linearGradient></defs></svg>