<svg width="95" height="95" fill="none" xmlns="http://www.w3.org/2000/svg"><path d="M17.86 93.6a2.281 2.281 0 0 1-2.282-2.302V63.376a2.243 2.243 0 0 1 4.465 0v27.922A2.282 2.282 0 0 1 17.86 93.6ZM71.245 92.309a2.203 2.203 0 0 1-2.203-2.203V52.558a2.203 2.203 0 0 1 4.406 0v37.548a2.203 2.203 0 0 1-2.203 2.203ZM47.49 90.264a2.203 2.203 0 0 1-2.203-2.203V35.193a2.223 2.223 0 0 1 4.426 0V88.06a2.223 2.223 0 0 1-2.223 2.203Z" fill="#78E33C"/><path d="M34.134 52.895a16.332 16.332 0 1 1-16.273-16.332 16.254 16.254 0 0 1 16.273 16.332Z" fill="url(#a)"/><path d="M87.578 42.517a16.313 16.313 0 1 1-32.627-.08 16.313 16.313 0 0 1 32.627.08Z" fill="url(#b)"/><mask id="c" maskUnits="userSpaceOnUse" x="58" y="35" width="27" height="20" fill="#000"><path fill="#fff" d="M58 35h27v20H58z"/><path d="M77.999 38.332a7.377 7.377 0 0 0-2.134.328 6.934 6.934 0 0 0-1.92.928c-.584.403-1.1.886-1.606 1.374-.506.49-1.01.961-1.56 1.412 1.11.635 2.364 1.001 3.653 1.133a9.693 9.693 0 0 0 3.837-.372 9.262 9.262 0 0 0 3.332-1.827c.955-.824 1.742-1.75 2.229-2.88a8.977 8.977 0 0 0-3.066-1.768 9.27 9.27 0 0 0-3.556-.456 8.739 8.739 0 0 0-3.436.965 8.07 8.07 0 0 0-.761.457c-.244.167-.481.343-.71.53-.458.373-.889.777-1.316 1.187-.427.409-.85.824-1.296 1.222-.223.198-.451.393-.688.577-.237.186-.481.363-.738.525-.064.041-.128.082-.194.12-.066.038-.13.078-.197.114l-.202.108c-.067.037-.138.066-.207.1l-.103.05c-.035.016-.071.03-.106.045-.071.029-.14.06-.213.087-.144.053-.288.108-.436.15-.147.047-.299.08-.448.118l-.228.044-.114.021-.115.017a6.194 6.194 0 0 1-.926.06 6.497 6.497 0 0 1-2.684-.611 6.703 6.703 0 0 1-.797-.45c-1.01-.672-1.813-1.623-2.267-2.712L59 38.866l.057-.039c.85-.58 1.871-.916 2.908-1.003a6.737 6.737 0 0 1 4.408 1.192c.42.29.804.623 1.155.984a9.26 9.26 0 0 1 1.677 2.457 11.051 11.051 0 0 1 .737 2.082c.056.238.107.478.146.72.078.481.138.965.183 1.45.026.242.043.485.064.728.016.243.036.485.049.728a59.9 59.9 0 0 1 .1 2.917c.012.973 0 1.946-.039 2.918.014-.486.02-.972.02-1.459a76.264 76.264 0 0 0-.019-1.458 60.43 60.43 0 0 0-.13-2.914c-.016-.242-.038-.484-.057-.727-.024-.242-.043-.484-.07-.726-.05-.483-.116-.965-.198-1.443a10.75 10.75 0 0 0-.894-2.77 9.133 9.133 0 0 0-1.67-2.416 7.585 7.585 0 0 0-1.14-.96 6.566 6.566 0 0 0-4.306-1.14c-1.009.09-1.967.35-2.786.913.443 1.055 1.224 1.943 2.206 2.594a6.191 6.191 0 0 0 1.606.753c.572.172 1.17.265 1.769.269.3.002.599-.018.894-.06l.111-.016.11-.021.22-.043c.144-.038.29-.069.432-.116.143-.04.282-.094.422-.144.07-.027.137-.057.206-.086.034-.014.069-.028.102-.044l.1-.048c.067-.033.135-.062.2-.098l.196-.105c.065-.036.127-.075.192-.112a8.599 8.599 0 0 0 .909-.631c.232-.181.457-.374.677-.57.44-.394.86-.81 1.29-1.22.428-.41.864-.817 1.33-1.195.233-.19.476-.368.726-.539.25-.17.513-.324.782-.467a8.959 8.959 0 0 1 3.518-.982 9.473 9.473 0 0 1 3.634.472 9.154 9.154 0 0 1 3.127 1.812l.046.04-.024.055c-.127.287-.269.569-.426.843a8.88 8.88 0 0 1-.525.791 9.112 9.112 0 0 1-.616.73c-.22.231-.452.454-.696.662a9.427 9.427 0 0 1-3.4 1.84c-1.253.376-2.59.5-3.894.356a9.308 9.308 0 0 1-3.688-1.214l-.054-.032.047-.038c.55-.442 1.053-.935 1.564-1.42.512-.484 1.035-.965 1.627-1.366.59-.403 1.25-.71 1.942-.915A7.43 7.43 0 0 1 78 38.332Z"/></mask><path d="M77.999 38.332a7.377 7.377 0 0 0-2.134.328 6.934 6.934 0 0 0-1.92.928c-.584.403-1.1.886-1.606 1.374-.506.49-1.01.961-1.56 1.412 1.11.635 2.364 1.001 3.653 1.133a9.693 9.693 0 0 0 3.837-.372 9.262 9.262 0 0 0 3.332-1.827c.955-.824 1.742-1.75 2.229-2.88a8.977 8.977 0 0 0-3.066-1.768 9.27 9.27 0 0 0-3.556-.456 8.739 8.739 0 0 0-3.436.965 8.07 8.07 0 0 0-.761.457c-.244.167-.481.343-.71.53-.458.373-.889.777-1.316 1.187-.427.409-.85.824-1.296 1.222-.223.198-.451.393-.688.577-.237.186-.481.363-.738.525-.064.041-.128.082-.194.12-.066.038-.13.078-.197.114l-.202.108c-.067.037-.138.066-.207.1l-.103.05c-.035.016-.071.03-.106.045-.071.029-.14.06-.213.087-.144.053-.288.108-.436.15-.147.047-.299.08-.448.118l-.228.044-.114.021-.115.017a6.194 6.194 0 0 1-.926.06 6.497 6.497 0 0 1-2.684-.611 6.703 6.703 0 0 1-.797-.45c-1.01-.672-1.813-1.623-2.267-2.712L59 38.866l.057-.039c.85-.58 1.871-.916 2.908-1.003a6.737 6.737 0 0 1 4.408 1.192c.42.29.804.623 1.155.984a9.26 9.26 0 0 1 1.677 2.457 11.051 11.051 0 0 1 .737 2.082c.056.238.107.478.146.72.078.481.138.965.183 1.45.026.242.043.485.064.728.016.243.036.485.049.728a59.9 59.9 0 0 1 .1 2.917c.012.973 0 1.946-.039 2.918.014-.486.02-.972.02-1.459a76.264 76.264 0 0 0-.019-1.458 60.43 60.43 0 0 0-.13-2.914c-.016-.242-.038-.484-.057-.727-.024-.242-.043-.484-.07-.726-.05-.483-.116-.965-.198-1.443a10.75 10.75 0 0 0-.894-2.77 9.133 9.133 0 0 0-1.67-2.416 7.585 7.585 0 0 0-1.14-.96 6.566 6.566 0 0 0-4.306-1.14c-1.009.09-1.967.35-2.786.913.443 1.055 1.224 1.943 2.206 2.594a6.191 6.191 0 0 0 1.606.753c.572.172 1.17.265 1.769.269.3.002.599-.018.894-.06l.111-.016.11-.021.22-.043c.144-.038.29-.069.432-.116.143-.04.282-.094.422-.144.07-.027.137-.057.206-.086.034-.014.069-.028.102-.044l.1-.048c.067-.033.135-.062.2-.098l.196-.105c.065-.036.127-.075.192-.112a8.599 8.599 0 0 0 .909-.631c.232-.181.457-.374.677-.57.44-.394.86-.81 1.29-1.22.428-.41.864-.817 1.33-1.195.233-.19.476-.368.726-.539.25-.17.513-.324.782-.467a8.959 8.959 0 0 1 3.518-.982 9.473 9.473 0 0 1 3.634.472 9.154 9.154 0 0 1 3.127 1.812l.046.04-.024.055c-.127.287-.269.569-.426.843a8.88 8.88 0 0 1-.525.791 9.112 9.112 0 0 1-.616.73c-.22.231-.452.454-.696.662a9.427 9.427 0 0 1-3.4 1.84c-1.253.376-2.59.5-3.894.356a9.308 9.308 0 0 1-3.688-1.214l-.054-.032.047-.038c.55-.442 1.053-.935 1.564-1.42.512-.484 1.035-.965 1.627-1.366.59-.403 1.25-.71 1.942-.915A7.43 7.43 0 0 1 78 38.332Z" fill="#fff"/><path d="M77.999 38.332a7.377 7.377 0 0 0-2.134.328 6.934 6.934 0 0 0-1.92.928c-.584.403-1.1.886-1.606 1.374-.506.49-1.01.961-1.56 1.412 1.11.635 2.364 1.001 3.653 1.133a9.693 9.693 0 0 0 3.837-.372 9.262 9.262 0 0 0 3.332-1.827c.955-.824 1.742-1.75 2.229-2.88a8.977 8.977 0 0 0-3.066-1.768 9.27 9.27 0 0 0-3.556-.456 8.739 8.739 0 0 0-3.436.965 8.07 8.07 0 0 0-.761.457c-.244.167-.481.343-.71.53-.458.373-.889.777-1.316 1.187-.427.409-.85.824-1.296 1.222-.223.198-.451.393-.688.577-.237.186-.481.363-.738.525-.064.041-.128.082-.194.12-.066.038-.13.078-.197.114l-.202.108c-.067.037-.138.066-.207.1l-.103.05c-.035.016-.071.03-.106.045-.071.029-.14.06-.213.087-.144.053-.288.108-.436.15-.147.047-.299.08-.448.118l-.228.044-.114.021-.115.017a6.194 6.194 0 0 1-.926.06 6.497 6.497 0 0 1-2.684-.611 6.703 6.703 0 0 1-.797-.45c-1.01-.672-1.813-1.623-2.267-2.712L59 38.866l.057-.039c.85-.58 1.871-.916 2.908-1.003a6.737 6.737 0 0 1 4.408 1.192c.42.29.804.623 1.155.984a9.26 9.26 0 0 1 1.677 2.457 11.051 11.051 0 0 1 .737 2.082c.056.238.107.478.146.72.078.481.138.965.183 1.45.026.242.043.485.064.728.016.243.036.485.049.728a59.9 59.9 0 0 1 .1 2.917c.012.973 0 1.946-.039 2.918.014-.486.02-.972.02-1.459a76.264 76.264 0 0 0-.019-1.458 60.43 60.43 0 0 0-.13-2.914c-.016-.242-.038-.484-.057-.727-.024-.242-.043-.484-.07-.726-.05-.483-.116-.965-.198-1.443a10.75 10.75 0 0 0-.894-2.77 9.133 9.133 0 0 0-1.67-2.416 7.585 7.585 0 0 0-1.14-.96 6.566 6.566 0 0 0-4.306-1.14c-1.009.09-1.967.35-2.786.913.443 1.055 1.224 1.943 2.206 2.594a6.191 6.191 0 0 0 1.606.753c.572.172 1.17.265 1.769.269.3.002.599-.018.894-.06l.111-.016.11-.021.22-.043c.144-.038.29-.069.432-.116.143-.04.282-.094.422-.144.07-.027.137-.057.206-.086.034-.014.069-.028.102-.044l.1-.048c.067-.033.135-.062.2-.098l.196-.105c.065-.036.127-.075.192-.112a8.599 8.599 0 0 0 .909-.631c.232-.181.457-.374.677-.57.44-.394.86-.81 1.29-1.22.428-.41.864-.817 1.33-1.195.233-.19.476-.368.726-.539.25-.17.513-.324.782-.467a8.959 8.959 0 0 1 3.518-.982 9.473 9.473 0 0 1 3.634.472 9.154 9.154 0 0 1 3.127 1.812l.046.04-.024.055c-.127.287-.269.569-.426.843a8.88 8.88 0 0 1-.525.791 9.112 9.112 0 0 1-.616.73c-.22.231-.452.454-.696.662a9.427 9.427 0 0 1-3.4 1.84c-1.253.376-2.59.5-3.894.356a9.308 9.308 0 0 1-3.688-1.214l-.054-.032.047-.038c.55-.442 1.053-.935 1.564-1.42.512-.484 1.035-.965 1.627-1.366.59-.403 1.25-.71 1.942-.915A7.43 7.43 0 0 1 78 38.332Z" stroke="#fff" stroke-width=".48" mask="url(#c)"/><mask id="d" maskUnits="userSpaceOnUse" x="4" y="45" width="27" height="20" fill="#000"><path fill="#fff" d="M4 45h27v20H4z"/><path d="M23.999 48.332a7.377 7.377 0 0 0-2.134.328 6.934 6.934 0 0 0-1.92.928c-.584.403-1.1.886-1.606 1.374-.506.49-1.01.961-1.56 1.412 1.11.635 2.364 1.001 3.653 1.133a9.693 9.693 0 0 0 3.837-.372 9.262 9.262 0 0 0 3.332-1.827c.955-.824 1.742-1.75 2.229-2.88a8.977 8.977 0 0 0-3.066-1.768 9.27 9.27 0 0 0-3.556-.456 8.739 8.739 0 0 0-3.436.965 8.07 8.07 0 0 0-.761.457c-.244.167-.482.343-.71.53-.458.373-.889.777-1.316 1.187-.427.409-.85.824-1.296 1.222-.223.198-.451.393-.688.577-.237.186-.481.363-.738.525-.064.041-.128.082-.194.12-.066.038-.13.078-.197.114l-.202.108c-.067.037-.138.066-.207.1l-.103.05c-.035.016-.071.03-.106.045-.071.029-.14.06-.213.087-.144.053-.288.108-.437.15-.146.047-.297.08-.447.118l-.228.044-.114.021-.115.017a6.194 6.194 0 0 1-.926.06 6.497 6.497 0 0 1-2.684-.611 6.691 6.691 0 0 1-.797-.45c-1.01-.672-1.813-1.623-2.267-2.712L5 48.866l.057-.039c.85-.58 1.871-.916 2.908-1.003a6.737 6.737 0 0 1 4.408 1.192c.42.29.804.623 1.155.984a9.26 9.26 0 0 1 1.677 2.457 11.051 11.051 0 0 1 .737 2.082c.056.238.107.478.146.72.078.481.138.965.183 1.45.026.242.043.485.064.728.016.243.036.485.049.728a59.9 59.9 0 0 1 .1 2.917c.012.973 0 1.946-.039 2.918.014-.486.02-.972.02-1.459a76.264 76.264 0 0 0-.019-1.458 60.43 60.43 0 0 0-.13-2.914c-.016-.242-.038-.484-.057-.727-.024-.242-.043-.484-.07-.726-.05-.483-.116-.965-.198-1.443a10.75 10.75 0 0 0-.894-2.77 9.133 9.133 0 0 0-1.67-2.416 7.585 7.585 0 0 0-1.14-.96 6.566 6.566 0 0 0-4.306-1.14c-1.008.09-1.967.35-2.786.913.443 1.055 1.224 1.943 2.207 2.594a6.19 6.19 0 0 0 1.606.753c.57.172 1.169.265 1.768.269.3.002.599-.018.894-.06l.111-.016.11-.021.22-.043c.144-.038.29-.069.432-.116.144-.04.282-.094.422-.144.07-.027.137-.057.206-.086.034-.014.069-.028.102-.044l.1-.048c.067-.033.136-.062.2-.098l.196-.105c.065-.036.127-.075.192-.112a8.599 8.599 0 0 0 .909-.631c.232-.181.457-.374.677-.57.44-.394.86-.81 1.29-1.22.428-.41.864-.817 1.33-1.195.233-.19.476-.368.726-.539.25-.17.513-.324.782-.467a8.959 8.959 0 0 1 3.518-.982 9.473 9.473 0 0 1 3.634.472 9.154 9.154 0 0 1 3.127 1.812l.046.04-.024.055c-.127.287-.269.569-.426.843a8.88 8.88 0 0 1-.525.791 9.112 9.112 0 0 1-.616.73c-.22.231-.452.454-.696.662a9.427 9.427 0 0 1-3.4 1.84c-1.253.376-2.59.5-3.894.356a9.308 9.308 0 0 1-3.689-1.214l-.053-.032.047-.038c.55-.442 1.053-.935 1.564-1.42.512-.484 1.035-.965 1.627-1.366.59-.403 1.25-.71 1.942-.915A7.43 7.43 0 0 1 24 48.332Z"/></mask><path d="M23.999 48.332a7.377 7.377 0 0 0-2.134.328 6.934 6.934 0 0 0-1.92.928c-.584.403-1.1.886-1.606 1.374-.506.49-1.01.961-1.56 1.412 1.11.635 2.364 1.001 3.653 1.133a9.693 9.693 0 0 0 3.837-.372 9.262 9.262 0 0 0 3.332-1.827c.955-.824 1.742-1.75 2.229-2.88a8.977 8.977 0 0 0-3.066-1.768 9.27 9.27 0 0 0-3.556-.456 8.739 8.739 0 0 0-3.436.965 8.07 8.07 0 0 0-.761.457c-.244.167-.482.343-.71.53-.458.373-.889.777-1.316 1.187-.427.409-.85.824-1.296 1.222-.223.198-.451.393-.688.577-.237.186-.481.363-.738.525-.064.041-.128.082-.194.12-.066.038-.13.078-.197.114l-.202.108c-.067.037-.138.066-.207.1l-.103.05c-.035.016-.071.03-.106.045-.071.029-.14.06-.213.087-.144.053-.288.108-.437.15-.146.047-.297.08-.447.118l-.228.044-.114.021-.115.017a6.194 6.194 0 0 1-.926.06 6.497 6.497 0 0 1-2.684-.611 6.691 6.691 0 0 1-.797-.45c-1.01-.672-1.813-1.623-2.267-2.712L5 48.866l.057-.039c.85-.58 1.871-.916 2.908-1.003a6.737 6.737 0 0 1 4.408 1.192c.42.29.804.623 1.155.984a9.26 9.26 0 0 1 1.677 2.457 11.051 11.051 0 0 1 .737 2.082c.056.238.107.478.146.72.078.481.138.965.183 1.45.026.242.043.485.064.728.016.243.036.485.049.728a59.9 59.9 0 0 1 .1 2.917c.012.973 0 1.946-.039 2.918.014-.486.02-.972.02-1.459a76.264 76.264 0 0 0-.019-1.458 60.43 60.43 0 0 0-.13-2.914c-.016-.242-.038-.484-.057-.727-.024-.242-.043-.484-.07-.726-.05-.483-.116-.965-.198-1.443a10.75 10.75 0 0 0-.894-2.77 9.133 9.133 0 0 0-1.67-2.416 7.585 7.585 0 0 0-1.14-.96 6.566 6.566 0 0 0-4.306-1.14c-1.008.09-1.967.35-2.786.913.443 1.055 1.224 1.943 2.207 2.594a6.19 6.19 0 0 0 1.606.753c.57.172 1.169.265 1.768.269.3.002.599-.018.894-.06l.111-.016.11-.021.22-.043c.144-.038.29-.069.432-.116.144-.04.282-.094.422-.144.07-.027.137-.057.206-.086.034-.014.069-.028.102-.044l.1-.048c.067-.033.136-.062.2-.098l.196-.105c.065-.036.127-.075.192-.112a8.599 8.599 0 0 0 .909-.631c.232-.181.457-.374.677-.57.44-.394.86-.81 1.29-1.22.428-.41.864-.817 1.33-1.195.233-.19.476-.368.726-.539.25-.17.513-.324.782-.467a8.959 8.959 0 0 1 3.518-.982 9.473 9.473 0 0 1 3.634.472 9.154 9.154 0 0 1 3.127 1.812l.046.04-.024.055c-.127.287-.269.569-.426.843a8.88 8.88 0 0 1-.525.791 9.112 9.112 0 0 1-.616.73c-.22.231-.452.454-.696.662a9.427 9.427 0 0 1-3.4 1.84c-1.253.376-2.59.5-3.894.356a9.308 9.308 0 0 1-3.689-1.214l-.053-.032.047-.038c.55-.442 1.053-.935 1.564-1.42.512-.484 1.035-.965 1.627-1.366.59-.403 1.25-.71 1.942-.915A7.43 7.43 0 0 1 24 48.332Z" fill="#fff"/><path d="M23.999 48.332a7.377 7.377 0 0 0-2.134.328 6.934 6.934 0 0 0-1.92.928c-.584.403-1.1.886-1.606 1.374-.506.49-1.01.961-1.56 1.412 1.11.635 2.364 1.001 3.653 1.133a9.693 9.693 0 0 0 3.837-.372 9.262 9.262 0 0 0 3.332-1.827c.955-.824 1.742-1.75 2.229-2.88a8.977 8.977 0 0 0-3.066-1.768 9.27 9.27 0 0 0-3.556-.456 8.739 8.739 0 0 0-3.436.965 8.07 8.07 0 0 0-.761.457c-.244.167-.482.343-.71.53-.458.373-.889.777-1.316 1.187-.427.409-.85.824-1.296 1.222-.223.198-.451.393-.688.577-.237.186-.481.363-.738.525-.064.041-.128.082-.194.12-.066.038-.13.078-.197.114l-.202.108c-.067.037-.138.066-.207.1l-.103.05c-.035.016-.071.03-.106.045-.071.029-.14.06-.213.087-.144.053-.288.108-.437.15-.146.047-.297.08-.447.118l-.228.044-.114.021-.115.017a6.194 6.194 0 0 1-.926.06 6.497 6.497 0 0 1-2.684-.611 6.691 6.691 0 0 1-.797-.45c-1.01-.672-1.813-1.623-2.267-2.712L5 48.866l.057-.039c.85-.58 1.871-.916 2.908-1.003a6.737 6.737 0 0 1 4.408 1.192c.42.29.804.623 1.155.984a9.26 9.26 0 0 1 1.677 2.457 11.051 11.051 0 0 1 .737 2.082c.056.238.107.478.146.72.078.481.138.965.183 1.45.026.242.043.485.064.728.016.243.036.485.049.728a59.9 59.9 0 0 1 .1 2.917c.012.973 0 1.946-.039 2.918.014-.486.02-.972.02-1.459a76.264 76.264 0 0 0-.019-1.458 60.43 60.43 0 0 0-.13-2.914c-.016-.242-.038-.484-.057-.727-.024-.242-.043-.484-.07-.726-.05-.483-.116-.965-.198-1.443a10.75 10.75 0 0 0-.894-2.77 9.133 9.133 0 0 0-1.67-2.416 7.585 7.585 0 0 0-1.14-.96 6.566 6.566 0 0 0-4.306-1.14c-1.008.09-1.967.35-2.786.913.443 1.055 1.224 1.943 2.207 2.594a6.19 6.19 0 0 0 1.606.753c.57.172 1.169.265 1.768.269.3.002.599-.018.894-.06l.111-.016.11-.021.22-.043c.144-.038.29-.069.432-.116.144-.04.282-.094.422-.144.07-.027.137-.057.206-.086.034-.014.069-.028.102-.044l.1-.048c.067-.033.136-.062.2-.098l.196-.105c.065-.036.127-.075.192-.112a8.599 8.599 0 0 0 .909-.631c.232-.181.457-.374.677-.57.44-.394.86-.81 1.29-1.22.428-.41.864-.817 1.33-1.195.233-.19.476-.368.726-.539.25-.17.513-.324.782-.467a8.959 8.959 0 0 1 3.518-.982 9.473 9.473 0 0 1 3.634.472 9.154 9.154 0 0 1 3.127 1.812l.046.04-.024.055c-.127.287-.269.569-.426.843a8.88 8.88 0 0 1-.525.791 9.112 9.112 0 0 1-.616.73c-.22.231-.452.454-.696.662a9.427 9.427 0 0 1-3.4 1.84c-1.253.376-2.59.5-3.894.356a9.308 9.308 0 0 1-3.689-1.214l-.053-.032.047-.038c.55-.442 1.053-.935 1.564-1.42.512-.484 1.035-.965 1.627-1.366.59-.403 1.25-.71 1.942-.915A7.43 7.43 0 0 1 24 48.332Z" stroke="#fff" stroke-width=".48" mask="url(#d)"/><path d="M0 94.792h95c-26.275-11.848-68.745-11.848-95 0Z" fill="#43AF3E"/><path d="M47.49 40.215c11.07 0 20.044-8.956 20.044-20.004C67.534 9.163 58.56.207 47.49.207S27.446 9.163 27.446 20.211c0 11.048 8.974 20.004 20.044 20.004Z" fill="url(#e)"/><mask id="f" maskUnits="userSpaceOnUse" x="32" y="12" width="31" height="24" fill="#000"><path fill="#fff" d="M32 12h31v24H32z"/><path d="M55.039 15.85a8.195 8.195 0 0 0-2.475.4 7.879 7.879 0 0 0-2.228 1.136c-.677.492-1.275 1.083-1.863 1.68a29.985 29.985 0 0 1-1.81 1.725c1.288.776 2.743 1.223 4.239 1.385 1.494.166 3.022.006 4.45-.455a10.595 10.595 0 0 0 3.865-2.234c1.108-1.006 2.02-2.138 2.586-3.52a10.297 10.297 0 0 0-3.557-2.16 10.243 10.243 0 0 0-4.125-.558 9.785 9.785 0 0 0-2.057.375c-.67.2-1.317.469-1.928.805-.304.171-.6.354-.883.558-.283.205-.559.42-.824.648-.531.455-1.031.95-1.526 1.45-.495.5-.987 1.008-1.504 1.494-.259.243-.523.48-.798.706a10.188 10.188 0 0 1-1.081.788c-.076.046-.151.095-.229.14l-.234.131c-.078.045-.16.082-.24.123l-.12.06c-.04.02-.082.037-.122.055-.083.036-.164.074-.247.107-.168.064-.335.131-.507.182-.17.059-.346.098-.519.145l-.264.054-.132.026-.134.02a6.836 6.836 0 0 1-1.074.075 7.188 7.188 0 0 1-4.038-1.297 7.424 7.424 0 0 1-2.63-3.315l-.03-.076.066-.048c.985-.71 2.17-1.12 3.374-1.225a7.454 7.454 0 0 1 3.544.565 8.17 8.17 0 0 1 1.569.892c.487.353.933.761 1.34 1.202a11.36 11.36 0 0 1 1.945 3.003c.247.545.454 1.107.625 1.679.088.286.16.575.23.865.064.292.124.585.17.88.09.589.16 1.18.212 1.773.03.296.049.593.073.89.019.296.042.593.057.89.067 1.187.105 2.376.117 3.565.014 1.189 0 2.378-.046 3.566.016-.594.022-1.189.022-1.783a97.198 97.198 0 0 0-.02-1.782 77.658 77.658 0 0 0-.152-3.562c-.018-.296-.044-.592-.066-.888-.027-.296-.049-.592-.082-.887a27.92 27.92 0 0 0-.228-1.765 13.726 13.726 0 0 0-1.038-3.385 11.196 11.196 0 0 0-1.937-2.953 8.93 8.93 0 0 0-1.322-1.173 7.977 7.977 0 0 0-1.539-.863 7.263 7.263 0 0 0-3.456-.53c-1.17.11-2.282.428-3.232 1.116.514 1.289 1.42 2.374 2.56 3.17a6.975 6.975 0 0 0 3.914 1.249c.347.003.695-.022 1.038-.074l.128-.02.128-.025.255-.053c.167-.045.337-.083.501-.14.166-.05.328-.116.49-.177.08-.033.158-.07.238-.105.04-.018.08-.034.119-.053l.116-.06c.077-.04.157-.075.232-.12l.227-.127c.075-.044.148-.092.222-.137.075-.045.147-.094.219-.143.29-.193.567-.406.836-.629.27-.221.53-.457.785-.697.512-.48.999-.99 1.497-1.49a25.345 25.345 0 0 1 1.544-1.46c.269-.232.551-.451.84-.66.29-.208.596-.396.908-.57.626-.344 1.29-.618 1.975-.821a10.03 10.03 0 0 1 2.106-.38 10.47 10.47 0 0 1 4.216.578c1.344.48 2.586 1.24 3.627 2.213l.053.05-.028.066a11.25 11.25 0 0 1-.494 1.03c-.187.333-.388.657-.61.968-.223.31-.46.609-.714.893-.256.282-.524.554-.807.808a10.776 10.776 0 0 1-3.944 2.25 10.86 10.86 0 0 1-4.517.434 10.425 10.425 0 0 1-4.279-1.484l-.062-.038.055-.047c.638-.54 1.221-1.143 1.814-1.737.594-.59 1.201-1.179 1.888-1.668a7.855 7.855 0 0 1 2.252-1.118 8.236 8.236 0 0 1 2.485-.37Z"/></mask><path d="M55.039 15.85a8.195 8.195 0 0 0-2.475.4 7.879 7.879 0 0 0-2.228 1.136c-.677.492-1.275 1.083-1.863 1.68a29.985 29.985 0 0 1-1.81 1.725c1.288.776 2.743 1.223 4.239 1.385 1.494.166 3.022.006 4.45-.455a10.595 10.595 0 0 0 3.865-2.234c1.108-1.006 2.02-2.138 2.586-3.52a10.297 10.297 0 0 0-3.557-2.16 10.243 10.243 0 0 0-4.125-.558 9.785 9.785 0 0 0-2.057.375c-.67.2-1.317.469-1.928.805-.304.171-.6.354-.883.558-.283.205-.559.42-.824.648-.531.455-1.031.95-1.526 1.45-.495.5-.987 1.008-1.504 1.494-.259.243-.523.48-.798.706a10.188 10.188 0 0 1-1.081.788c-.076.046-.151.095-.229.14l-.234.131c-.078.045-.16.082-.24.123l-.12.06c-.04.02-.082.037-.122.055-.083.036-.164.074-.247.107-.168.064-.335.131-.507.182-.17.059-.346.098-.519.145l-.264.054-.132.026-.134.02a6.836 6.836 0 0 1-1.074.075 7.188 7.188 0 0 1-4.038-1.297 7.424 7.424 0 0 1-2.63-3.315l-.03-.076.066-.048c.985-.71 2.17-1.12 3.374-1.225a7.454 7.454 0 0 1 3.544.565 8.17 8.17 0 0 1 1.569.892c.487.353.933.761 1.34 1.202a11.36 11.36 0 0 1 1.945 3.003c.247.545.454 1.107.625 1.679.088.286.16.575.23.865.064.292.124.585.17.88.09.589.16 1.18.212 1.773.03.296.049.593.073.89.019.296.042.593.057.89.067 1.187.105 2.376.117 3.565.014 1.189 0 2.378-.046 3.566.016-.594.022-1.189.022-1.783a97.198 97.198 0 0 0-.02-1.782 77.658 77.658 0 0 0-.152-3.562c-.018-.296-.044-.592-.066-.888-.027-.296-.049-.592-.082-.887a27.92 27.92 0 0 0-.228-1.765 13.726 13.726 0 0 0-1.038-3.385 11.196 11.196 0 0 0-1.937-2.953 8.93 8.93 0 0 0-1.322-1.173 7.977 7.977 0 0 0-1.539-.863 7.263 7.263 0 0 0-3.456-.53c-1.17.11-2.282.428-3.232 1.116.514 1.289 1.42 2.374 2.56 3.17a6.975 6.975 0 0 0 3.914 1.249c.347.003.695-.022 1.038-.074l.128-.02.128-.025.255-.053c.167-.045.337-.083.501-.14.166-.05.328-.116.49-.177.08-.033.158-.07.238-.105.04-.018.08-.034.119-.053l.116-.06c.077-.04.157-.075.232-.12l.227-.127c.075-.044.148-.092.222-.137.075-.045.147-.094.219-.143.29-.193.567-.406.836-.629.27-.221.53-.457.785-.697.512-.48.999-.99 1.497-1.49a25.345 25.345 0 0 1 1.544-1.46c.269-.232.551-.451.84-.66.29-.208.596-.396.908-.57.626-.344 1.29-.618 1.975-.821a10.03 10.03 0 0 1 2.106-.38 10.47 10.47 0 0 1 4.216.578c1.344.48 2.586 1.24 3.627 2.213l.053.05-.028.066a11.25 11.25 0 0 1-.494 1.03c-.187.333-.388.657-.61.968-.223.31-.46.609-.714.893-.256.282-.524.554-.807.808a10.776 10.776 0 0 1-3.944 2.25 10.86 10.86 0 0 1-4.517.434 10.425 10.425 0 0 1-4.279-1.484l-.062-.038.055-.047c.638-.54 1.221-1.143 1.814-1.737.594-.59 1.201-1.179 1.888-1.668a7.855 7.855 0 0 1 2.252-1.118 8.236 8.236 0 0 1 2.485-.37Z" fill="#fff"/><path d="M55.039 15.85a8.195 8.195 0 0 0-2.475.4 7.879 7.879 0 0 0-2.228 1.136c-.677.492-1.275 1.083-1.863 1.68a29.985 29.985 0 0 1-1.81 1.725c1.288.776 2.743 1.223 4.239 1.385 1.494.166 3.022.006 4.45-.455a10.595 10.595 0 0 0 3.865-2.234c1.108-1.006 2.02-2.138 2.586-3.52a10.297 10.297 0 0 0-3.557-2.16 10.243 10.243 0 0 0-4.125-.558 9.785 9.785 0 0 0-2.057.375c-.67.2-1.317.469-1.928.805-.304.171-.6.354-.883.558-.283.205-.559.42-.824.648-.531.455-1.031.95-1.526 1.45-.495.5-.987 1.008-1.504 1.494-.259.243-.523.48-.798.706a10.188 10.188 0 0 1-1.081.788c-.076.046-.151.095-.229.14l-.234.131c-.078.045-.16.082-.24.123l-.12.06c-.04.02-.082.037-.122.055-.083.036-.164.074-.247.107-.168.064-.335.131-.507.182-.17.059-.346.098-.519.145l-.264.054-.132.026-.134.02a6.836 6.836 0 0 1-1.074.075 7.188 7.188 0 0 1-4.038-1.297 7.424 7.424 0 0 1-2.63-3.315l-.03-.076.066-.048c.985-.71 2.17-1.12 3.374-1.225a7.454 7.454 0 0 1 3.544.565 8.17 8.17 0 0 1 1.569.892c.487.353.933.761 1.34 1.202a11.36 11.36 0 0 1 1.945 3.003c.247.545.454 1.107.625 1.679.088.286.16.575.23.865.064.292.124.585.17.88.09.589.16 1.18.212 1.773.03.296.049.593.073.89.019.296.042.593.057.89.067 1.187.105 2.376.117 3.565.014 1.189 0 2.378-.046 3.566.016-.594.022-1.189.022-1.783a97.198 97.198 0 0 0-.02-1.782 77.658 77.658 0 0 0-.152-3.562c-.018-.296-.044-.592-.066-.888-.027-.296-.049-.592-.082-.887a27.92 27.92 0 0 0-.228-1.765 13.726 13.726 0 0 0-1.038-3.385 11.196 11.196 0 0 0-1.937-2.953 8.93 8.93 0 0 0-1.322-1.173 7.977 7.977 0 0 0-1.539-.863 7.263 7.263 0 0 0-3.456-.53c-1.17.11-2.282.428-3.232 1.116.514 1.289 1.42 2.374 2.56 3.17a6.975 6.975 0 0 0 3.914 1.249c.347.003.695-.022 1.038-.074l.128-.02.128-.025.255-.053c.167-.045.337-.083.501-.14.166-.05.328-.116.49-.177.08-.033.158-.07.238-.105.04-.018.08-.034.119-.053l.116-.06c.077-.04.157-.075.232-.12l.227-.127c.075-.044.148-.092.222-.137.075-.045.147-.094.219-.143.29-.193.567-.406.836-.629.27-.221.53-.457.785-.697.512-.48.999-.99 1.497-1.49a25.345 25.345 0 0 1 1.544-1.46c.269-.232.551-.451.84-.66.29-.208.596-.396.908-.57.626-.344 1.29-.618 1.975-.821a10.03 10.03 0 0 1 2.106-.38 10.47 10.47 0 0 1 4.216.578c1.344.48 2.586 1.24 3.627 2.213l.053.05-.028.066a11.25 11.25 0 0 1-.494 1.03c-.187.333-.388.657-.61.968-.223.31-.46.609-.714.893-.256.282-.524.554-.807.808a10.776 10.776 0 0 1-3.944 2.25 10.86 10.86 0 0 1-4.517.434 10.425 10.425 0 0 1-4.279-1.484l-.062-.038.055-.047c.638-.54 1.221-1.143 1.814-1.737.594-.59 1.201-1.179 1.888-1.668a7.855 7.855 0 0 1 2.252-1.118 8.236 8.236 0 0 1 2.485-.37Z" stroke="#fff" stroke-width=".48" mask="url(#f)"/><path d="M47.49 70.6c11.033 7.243 16.908-5.954 16.908-5.954C48.124 59.883 47.489 70.6 47.489 70.6ZM71.245 78.259c8.176 7.164 12.9-6.887 12.9-6.887-13.833-3.235-12.9 6.887-12.9 6.887Z" fill="#78E33C"/><path d="M71.244 78.259c-10.776 4.445-11.907-9.923-11.907-9.923 15.102-.02 11.907 9.923 11.907 9.923ZM47.49 70.6c0-15.143-19.667-11.908-19.667-11.908C34.59 78.617 47.49 70.6 47.49 70.6ZM17.86 82.012c10.797 5.457 14.548-7.66 14.548-7.66-15.004-3.99-14.547 7.66-14.547 7.66Z" fill="#78E33C"/><path d="M17.86 82.012c0-11.57-14.01-6.55-14.01-6.55 6.747 13.456 14.01 6.55 14.01 6.55Z" fill="#78E33C"/><defs><linearGradient id="a" x1="1.469" y1="42.687" x2="35.237" y2="45.075" gradientUnits="userSpaceOnUse"><stop stop-color="#30C917"/><stop offset="1" stop-color="#279A13"/></linearGradient><linearGradient id="b" x1="54.952" y1="32.281" x2="88.679" y2="34.666" gradientUnits="userSpaceOnUse"><stop stop-color="#30C917"/><stop offset="1" stop-color="#279A13"/></linearGradient><linearGradient id="e" x1="27.446" y1="7.709" x2="68.886" y2="10.644" gradientUnits="userSpaceOnUse"><stop stop-color="#30C917"/><stop offset="1" stop-color="#279A13"/></linearGradient></defs></svg>