<svg width="27" height="35" fill="none" xmlns="http://www.w3.org/2000/svg"><path d="M12.659 34.634.32 21.48a1.19 1.19 0 0 1 0-1.629l.014-.014a1.068 1.068 0 0 1 .775-.338 1.055 1.055 0 0 1 .775.338l11.617 12.386 11.613-12.386a1.068 1.068 0 0 1 .775-.338 1.054 1.054 0 0 1 .775.338l.014.014a1.19 1.19 0 0 1 0 1.629L14.341 34.634A1.16 1.16 0 0 1 13.5 35a1.145 1.145 0 0 1-.841-.366ZM12.659 15.134.32 1.98a1.19 1.19 0 0 1 0-1.629L.335.338A1.069 1.069 0 0 1 1.11 0a1.055 1.055 0 0 1 .775.338l11.617 12.386L25.115.338A1.068 1.068 0 0 1 25.89 0a1.054 1.054 0 0 1 .775.338l.014.014a1.19 1.19 0 0 1 0 1.629L14.341 15.134a1.16 1.16 0 0 1-.841.366 1.145 1.145 0 0 1-.841-.366Z" fill="#fff"/></svg>