<svg width="312" height="311" fill="none" xmlns="http://www.w3.org/2000/svg"><g filter="url(#a)"><circle cx="156" cy="147" r="88" fill="url(#b)"/><mask id="c" maskUnits="userSpaceOnUse" x="83.173" y="106.527" width="145" height="109" fill="#000"><path fill="#fff" d="M83.173 106.527h145v109h-145z"/><path d="M192.307 122.314a40.554 40.554 0 0 0-6.038.508c-1.996.321-3.962.81-5.881 1.431-3.835 1.257-7.488 3.089-10.729 5.487-3.261 2.381-6.141 5.238-8.971 8.122-2.825 2.892-5.644 5.68-8.717 8.346 6.204 3.754 13.212 5.917 20.413 6.699 7.195.804 14.556.028 21.434-2.202a50.974 50.974 0 0 0 18.612-10.802c5.334-4.867 9.73-10.34 12.452-17.023a49.542 49.542 0 0 0-17.127-10.453c-6.342-2.271-13.161-3.155-19.868-2.694-3.357.235-6.679.867-9.907 1.812a47.24 47.24 0 0 0-9.285 3.896c-1.461.826-2.888 1.71-4.252 2.699a58.604 58.604 0 0 0-3.965 3.132c-2.559 2.202-4.967 4.592-7.35 7.015-2.385 2.42-4.754 4.876-7.245 7.224a76.491 76.491 0 0 1-3.843 3.414c-1.323 1.097-2.687 2.147-4.122 3.103-.357.243-.713.486-1.083.707-.367.227-.729.461-1.101.677l-1.13.635c-.372.219-.767.395-1.151.594l-.58.293c-.193.094-.395.177-.591.265-.397.172-.787.357-1.187.52-.809.309-1.612.632-2.441.878-.817.285-1.665.475-2.498.702l-1.273.26-.638.127-.643.096a32.701 32.701 0 0 1-5.175.359 34.461 34.461 0 0 1-14.995-3.616 36.926 36.926 0 0 1-4.448-2.652c-5.649-3.978-10.127-9.603-12.668-16.037l-.143-.367.317-.229c4.747-3.434 10.454-5.415 16.249-5.929 5.804-.514 11.721.459 17.069 2.735 2.673 1.144 5.202 2.611 7.554 4.312 2.347 1.71 4.492 3.683 6.453 5.816 3.901 4.29 7.004 9.257 9.368 14.525a63.843 63.843 0 0 1 3.009 8.12c.423 1.381.774 2.782 1.108 4.185a67.52 67.52 0 0 1 .817 4.252c.433 2.851.77 5.71 1.021 8.577.144 1.432.238 2.868.354 4.302.091 1.436.201 2.87.273 4.307.323 5.743.505 11.492.563 17.244.067 5.749.003 11.501-.218 17.247.075-2.873.105-5.749.105-8.622a476.635 476.635 0 0 0-.099-8.622 377.819 377.819 0 0 0-.732-17.225c-.085-1.434-.21-2.865-.315-4.299-.132-1.431-.237-2.862-.394-4.29a136.021 136.021 0 0 0-1.102-8.534 66.766 66.766 0 0 0-1.971-8.351 63.493 63.493 0 0 0-3.027-8.023c-2.366-5.199-5.464-10.086-9.326-14.282-1.941-2.086-4.056-4.012-6.367-5.672-2.314-1.655-4.793-3.072-7.411-4.174-5.238-2.191-11-3.1-16.646-2.567-5.633.536-10.99 2.071-15.564 5.4 2.476 6.235 6.842 11.485 12.328 15.334a35.598 35.598 0 0 0 4.318 2.563 33.336 33.336 0 0 0 14.531 3.476 31.4 31.4 0 0 0 4.998-.357l.618-.094.616-.124 1.229-.254c.806-.221 1.623-.403 2.413-.682.801-.241 1.576-.556 2.358-.854.386-.158.765-.337 1.148-.506.191-.085.384-.165.572-.259l.56-.285c.37-.193.754-.367 1.116-.58l1.093-.619c.362-.213.713-.442 1.072-.663.359-.215.706-.453 1.052-.691 1.397-.933 2.73-1.964 4.025-3.041a73.941 73.941 0 0 0 3.783-3.373c2.463-2.324 4.81-4.782 7.206-7.205 2.394-2.426 4.829-4.832 7.436-7.064a59.231 59.231 0 0 1 4.05-3.188c1.394-1.008 2.866-1.917 4.368-2.76a48.511 48.511 0 0 1 9.515-3.97c3.305-.961 6.706-1.599 10.141-1.834 6.864-.459 13.824.458 20.302 2.79a50.556 50.556 0 0 1 17.466 10.708l.257.24-.133.321a54.554 54.554 0 0 1-2.382 4.983 52.772 52.772 0 0 1-2.933 4.68 53.184 53.184 0 0 1-3.44 4.315 53.974 53.974 0 0 1-3.89 3.912 51.838 51.838 0 0 1-18.991 10.877c-6.999 2.221-14.465 2.961-21.754 2.105a50.065 50.065 0 0 1-20.606-7.18l-.3-.185.267-.227c3.071-2.613 5.879-5.528 8.736-8.398 2.861-2.859 5.782-5.702 9.09-8.07 3.291-2.381 6.98-4.199 10.848-5.409a39.527 39.527 0 0 1 5.917-1.359 40.905 40.905 0 0 1 6.046-.431Z"/></mask><path d="M192.307 122.314a40.554 40.554 0 0 0-6.038.508c-1.996.321-3.962.81-5.881 1.431-3.835 1.257-7.488 3.089-10.729 5.487-3.261 2.381-6.141 5.238-8.971 8.122-2.825 2.892-5.644 5.68-8.717 8.346 6.204 3.754 13.212 5.917 20.413 6.699 7.195.804 14.556.028 21.434-2.202a50.974 50.974 0 0 0 18.612-10.802c5.334-4.867 9.73-10.34 12.452-17.023a49.542 49.542 0 0 0-17.127-10.453c-6.342-2.271-13.161-3.155-19.868-2.694-3.357.235-6.679.867-9.907 1.812a47.24 47.24 0 0 0-9.285 3.896c-1.461.826-2.888 1.71-4.252 2.699a58.604 58.604 0 0 0-3.965 3.132c-2.559 2.202-4.967 4.592-7.35 7.015-2.385 2.42-4.754 4.876-7.245 7.224a76.491 76.491 0 0 1-3.843 3.414c-1.323 1.097-2.687 2.147-4.122 3.103-.357.243-.713.486-1.083.707-.367.227-.729.461-1.101.677l-1.13.635c-.372.219-.767.395-1.151.594l-.58.293c-.193.094-.395.177-.591.265-.397.172-.787.357-1.187.52-.809.309-1.612.632-2.441.878-.817.285-1.665.475-2.498.702l-1.273.26-.638.127-.643.096a32.701 32.701 0 0 1-5.175.359 34.461 34.461 0 0 1-14.995-3.616 36.926 36.926 0 0 1-4.448-2.652c-5.649-3.978-10.127-9.603-12.668-16.037l-.143-.367.317-.229c4.747-3.434 10.454-5.415 16.249-5.929 5.804-.514 11.721.459 17.069 2.735 2.673 1.144 5.202 2.611 7.554 4.312 2.347 1.71 4.492 3.683 6.453 5.816 3.901 4.29 7.004 9.257 9.368 14.525a63.843 63.843 0 0 1 3.009 8.12c.423 1.381.774 2.782 1.108 4.185a67.52 67.52 0 0 1 .817 4.252c.433 2.851.77 5.71 1.021 8.577.144 1.432.238 2.868.354 4.302.091 1.436.201 2.87.273 4.307.323 5.743.505 11.492.563 17.244.067 5.749.003 11.501-.218 17.247.075-2.873.105-5.749.105-8.622a476.635 476.635 0 0 0-.099-8.622 377.819 377.819 0 0 0-.732-17.225c-.085-1.434-.21-2.865-.315-4.299-.132-1.431-.237-2.862-.394-4.29a136.021 136.021 0 0 0-1.102-8.534 66.766 66.766 0 0 0-1.971-8.351 63.493 63.493 0 0 0-3.027-8.023c-2.366-5.199-5.464-10.086-9.326-14.282-1.941-2.086-4.056-4.012-6.367-5.672-2.314-1.655-4.793-3.072-7.411-4.174-5.238-2.191-11-3.1-16.646-2.567-5.633.536-10.99 2.071-15.564 5.4 2.476 6.235 6.842 11.485 12.328 15.334a35.598 35.598 0 0 0 4.318 2.563 33.336 33.336 0 0 0 14.531 3.476 31.4 31.4 0 0 0 4.998-.357l.618-.094.616-.124 1.229-.254c.806-.221 1.623-.403 2.413-.682.801-.241 1.576-.556 2.358-.854.386-.158.765-.337 1.148-.506.191-.085.384-.165.572-.259l.56-.285c.37-.193.754-.367 1.116-.58l1.093-.619c.362-.213.713-.442 1.072-.663.359-.215.706-.453 1.052-.691 1.397-.933 2.73-1.964 4.025-3.041a73.941 73.941 0 0 0 3.783-3.373c2.463-2.324 4.81-4.782 7.206-7.205 2.394-2.426 4.829-4.832 7.436-7.064a59.231 59.231 0 0 1 4.05-3.188c1.394-1.008 2.866-1.917 4.368-2.76a48.511 48.511 0 0 1 9.515-3.97c3.305-.961 6.706-1.599 10.141-1.834 6.864-.459 13.824.458 20.302 2.79a50.556 50.556 0 0 1 17.466 10.708l.257.24-.133.321a54.554 54.554 0 0 1-2.382 4.983 52.772 52.772 0 0 1-2.933 4.68 53.184 53.184 0 0 1-3.44 4.315 53.974 53.974 0 0 1-3.89 3.912 51.838 51.838 0 0 1-18.991 10.877c-6.999 2.221-14.465 2.961-21.754 2.105a50.065 50.065 0 0 1-20.606-7.18l-.3-.185.267-.227c3.071-2.613 5.879-5.528 8.736-8.398 2.861-2.859 5.782-5.702 9.09-8.07 3.291-2.381 6.98-4.199 10.848-5.409a39.527 39.527 0 0 1 5.917-1.359 40.905 40.905 0 0 1 6.046-.431Z" fill="#fff"/><path d="M192.307 122.314a40.554 40.554 0 0 0-6.038.508c-1.996.321-3.962.81-5.881 1.431-3.835 1.257-7.488 3.089-10.729 5.487-3.261 2.381-6.141 5.238-8.971 8.122-2.825 2.892-5.644 5.68-8.717 8.346 6.204 3.754 13.212 5.917 20.413 6.699 7.195.804 14.556.028 21.434-2.202a50.974 50.974 0 0 0 18.612-10.802c5.334-4.867 9.73-10.34 12.452-17.023a49.542 49.542 0 0 0-17.127-10.453c-6.342-2.271-13.161-3.155-19.868-2.694-3.357.235-6.679.867-9.907 1.812a47.24 47.24 0 0 0-9.285 3.896c-1.461.826-2.888 1.71-4.252 2.699a58.604 58.604 0 0 0-3.965 3.132c-2.559 2.202-4.967 4.592-7.35 7.015-2.385 2.42-4.754 4.876-7.245 7.224a76.491 76.491 0 0 1-3.843 3.414c-1.323 1.097-2.687 2.147-4.122 3.103-.357.243-.713.486-1.083.707-.367.227-.729.461-1.101.677l-1.13.635c-.372.219-.767.395-1.151.594l-.58.293c-.193.094-.395.177-.591.265-.397.172-.787.357-1.187.52-.809.309-1.612.632-2.441.878-.817.285-1.665.475-2.498.702l-1.273.26-.638.127-.643.096a32.701 32.701 0 0 1-5.175.359 34.461 34.461 0 0 1-14.995-3.616 36.926 36.926 0 0 1-4.448-2.652c-5.649-3.978-10.127-9.603-12.668-16.037l-.143-.367.317-.229c4.747-3.434 10.454-5.415 16.249-5.929 5.804-.514 11.721.459 17.069 2.735 2.673 1.144 5.202 2.611 7.554 4.312 2.347 1.71 4.492 3.683 6.453 5.816 3.901 4.29 7.004 9.257 9.368 14.525a63.843 63.843 0 0 1 3.009 8.12c.423 1.381.774 2.782 1.108 4.185a67.52 67.52 0 0 1 .817 4.252c.433 2.851.77 5.71 1.021 8.577.144 1.432.238 2.868.354 4.302.091 1.436.201 2.87.273 4.307.323 5.743.505 11.492.563 17.244.067 5.749.003 11.501-.218 17.247.075-2.873.105-5.749.105-8.622a476.635 476.635 0 0 0-.099-8.622 377.819 377.819 0 0 0-.732-17.225c-.085-1.434-.21-2.865-.315-4.299-.132-1.431-.237-2.862-.394-4.29a136.021 136.021 0 0 0-1.102-8.534 66.766 66.766 0 0 0-1.971-8.351 63.493 63.493 0 0 0-3.027-8.023c-2.366-5.199-5.464-10.086-9.326-14.282-1.941-2.086-4.056-4.012-6.367-5.672-2.314-1.655-4.793-3.072-7.411-4.174-5.238-2.191-11-3.1-16.646-2.567-5.633.536-10.99 2.071-15.564 5.4 2.476 6.235 6.842 11.485 12.328 15.334a35.598 35.598 0 0 0 4.318 2.563 33.336 33.336 0 0 0 14.531 3.476 31.4 31.4 0 0 0 4.998-.357l.618-.094.616-.124 1.229-.254c.806-.221 1.623-.403 2.413-.682.801-.241 1.576-.556 2.358-.854.386-.158.765-.337 1.148-.506.191-.085.384-.165.572-.259l.56-.285c.37-.193.754-.367 1.116-.58l1.093-.619c.362-.213.713-.442 1.072-.663.359-.215.706-.453 1.052-.691 1.397-.933 2.73-1.964 4.025-3.041a73.941 73.941 0 0 0 3.783-3.373c2.463-2.324 4.81-4.782 7.206-7.205 2.394-2.426 4.829-4.832 7.436-7.064a59.231 59.231 0 0 1 4.05-3.188c1.394-1.008 2.866-1.917 4.368-2.76a48.511 48.511 0 0 1 9.515-3.97c3.305-.961 6.706-1.599 10.141-1.834 6.864-.459 13.824.458 20.302 2.79a50.556 50.556 0 0 1 17.466 10.708l.257.24-.133.321a54.554 54.554 0 0 1-2.382 4.983 52.772 52.772 0 0 1-2.933 4.68 53.184 53.184 0 0 1-3.44 4.315 53.974 53.974 0 0 1-3.89 3.912 51.838 51.838 0 0 1-18.991 10.877c-6.999 2.221-14.465 2.961-21.754 2.105a50.065 50.065 0 0 1-20.606-7.18l-.3-.185.267-.227c3.071-2.613 5.879-5.528 8.736-8.398 2.861-2.859 5.782-5.702 9.09-8.07 3.291-2.381 6.98-4.199 10.848-5.409a39.527 39.527 0 0 1 5.917-1.359 40.905 40.905 0 0 1 6.046-.431Z" stroke="#fff" stroke-width="3.352" mask="url(#c)"/></g><defs><linearGradient id="b" x1="68" y1="92" x2="249.941" y2="104.863" gradientUnits="userSpaceOnUse"><stop stop-color="#30C917"/><stop offset="1" stop-color="#279A13"/></linearGradient><filter id="a" x=".952" y=".333" width="310.095" height="310.095" filterUnits="userSpaceOnUse" color-interpolation-filters="sRGB"><feFlood flood-opacity="0" result="BackgroundImageFix"/><feColorMatrix in="SourceAlpha" values="0 0 0 0 0 0 0 0 0 0 0 0 0 0 0 0 0 0 127 0" result="hardAlpha"/><feOffset dy="8.381"/><feGaussianBlur stdDeviation="33.524"/><feComposite in2="hardAlpha" operator="out"/><feColorMatrix values="0 0 0 0 0.104167 0 0 0 0 0.066116 0 0 0 0 0.030816 0 0 0 0.12 0"/><feBlend in2="BackgroundImageFix" result="effect1_dropShadow_300_154"/><feBlend in="SourceGraphic" in2="effect1_dropShadow_300_154" result="shape"/></filter></defs></svg>